<?xml version="1.0" encoding="UTF-8" standalone="no"?>
<!-- Created with Inkscape (http://www.inkscape.org/) -->

<svg
   xmlns:dc="http://purl.org/dc/elements/1.1/"
   xmlns:cc="http://creativecommons.org/ns#"
   xmlns:rdf="http://www.w3.org/1999/02/22-rdf-syntax-ns#"
   xmlns:svg="http://www.w3.org/2000/svg"
   xmlns="http://www.w3.org/2000/svg"
   xmlns:sodipodi="http://sodipodi.sourceforge.net/DTD/sodipodi-0.dtd"
   xmlns:inkscape="http://www.inkscape.org/namespaces/inkscape"
   width="128.39793mm"
   height="21.661421mm"
   viewBox="0 0 128.39793 21.661421"
   version="1.1"
   id="svg26429"
   inkscape:version="0.92.5 (0.92.5+68)"
   sodipodi:docname="steps\.svg">
  <defs
     id="defs26423">
    <clipPath
       id="clip22">
      <path
         inkscape:connector-curvature="0"
         d="m 265.15234,60.351562 h 21.92188 v 26.539063 h -21.92188 z m 0,0"
         id="path900" />
    </clipPath>
    <clipPath
       id="clip21">
      <path
         inkscape:connector-curvature="0"
         d="m 265.15234,60.351562 h 21.92188 V 73 h -21.92188 z m 0,0"
         id="path897" />
    </clipPath>
    <clipPath
       id="clip20">
      <path
         inkscape:connector-curvature="0"
         d="m 330.86328,60.351562 h 21.92578 v 26.539063 h -21.92578 z m 0,0"
         id="path894" />
    </clipPath>
    <clipPath
       id="clip19">
      <path
         inkscape:connector-curvature="0"
         d="m 330.86328,60.351562 h 21.92578 V 73 h -21.92578 z m 0,0"
         id="path891" />
    </clipPath>
  </defs>
  <sodipodi:namedview
     id="base"
     pagecolor="#ffffff"
     bordercolor="#666666"
     borderopacity="1.0"
     inkscape:pageopacity="0.0"
     inkscape:pageshadow="2"
     inkscape:zoom="1.979899"
     inkscape:cx="202.1732"
     inkscape:cy="-6.7614295"
     inkscape:document-units="mm"
     inkscape:current-layer="layer1"
     showgrid="false"
     fit-margin-top="3"
     fit-margin-left="3"
     fit-margin-right="3"
     fit-margin-bottom="3"
     inkscape:window-width="1920"
     inkscape:window-height="1018"
     inkscape:window-x="0"
     inkscape:window-y="0"
     inkscape:window-maximized="1" />
  <metadata
     id="metadata26426">
    <rdf:RDF>
      <cc:Work
         rdf:about="">
        <dc:format>image/svg+xml</dc:format>
        <dc:type
           rdf:resource="http://purl.org/dc/dcmitype/StillImage" />
        <dc:title></dc:title>
      </cc:Work>
    </rdf:RDF>
  </metadata>
  <g
     inkscape:label="Layer 1"
     inkscape:groupmode="layer"
     id="layer1"
     transform="translate(0.69896997,-107.76452)">
    <path
       inkscape:connector-curvature="0"
       id="path13542"
       d="m 94.402774,123.53344 h 7.733546 v -9.36102 h -7.733546 z m 0,0"
       style="fill:#ffffff;fill-opacity:1;fill-rule:nonzero;stroke:none;stroke-width:0.35277775" />
    <path
       inkscape:connector-curvature="0"
       id="path13544"
       d="m 94.470296,115.40439 c 0,0.63528 1.700498,1.14928 3.79925,1.14928 2.098754,0 3.799254,-0.514 3.799254,-1.14928 v 6.8957 c 0,0.63528 -1.7005,1.15067 -3.799254,1.15067 -2.098752,0 -3.79925,-0.51539 -3.79925,-1.15067 v -6.8957"
       style="fill:#cacaca;fill-opacity:1;fill-rule:nonzero;stroke:none;stroke-width:0.35277775" />
    <path
       inkscape:connector-curvature="0"
       id="path13546"
       d="m 94.470296,115.40439 c 0,-0.6339 1.700498,-1.14928 3.79925,-1.14928 2.098754,0 3.799254,0.51538 3.799254,1.14928 0,0.63528 -1.7005,1.14928 -3.799254,1.14928 -2.098752,0 -3.79925,-0.514 -3.79925,-1.14928"
       style="fill:#e3e3e3;fill-opacity:1;fill-rule:nonzero;stroke:none;stroke-width:0.35277775" />
    <path
       inkscape:connector-curvature="0"
       id="path13548"
       d="m 102.0688,115.40439 c 0,0.63528 -1.7005,1.14928 -3.799254,1.14928 -2.098752,0 -3.79925,-0.514 -3.79925,-1.14928 0,-0.6339 1.700498,-1.14928 3.79925,-1.14928 2.098754,0 3.799254,0.51538 3.799254,1.14928 z m 0,0"
       style="fill:none;stroke:#000202;stroke-width:0.17638887;stroke-linecap:butt;stroke-linejoin:miter;stroke-miterlimit:8;stroke-opacity:1" />
    <path
       inkscape:connector-curvature="0"
       id="path13550"
       d="m 102.0688,115.40439 v 6.8957 c 0,0.63528 -1.7005,1.15067 -3.799254,1.15067 -2.098752,0 -3.79925,-0.51539 -3.79925,-1.15067 v -6.8957"
       style="fill:none;stroke:#000202;stroke-width:0.17638887;stroke-linecap:butt;stroke-linejoin:miter;stroke-miterlimit:8;stroke-opacity:1" />
    <path
       inkscape:connector-curvature="0"
       id="path13626"
       d="m 50.476427,123.53344 h 7.734927 v -9.36102 h -7.734927 z m 0,0"
       style="fill:#ffffff;fill-opacity:1;fill-rule:nonzero;stroke:none;stroke-width:0.35277775" />
    <path
       inkscape:connector-curvature="0"
       id="path13628"
       d="m 50.54533,115.40439 c 0,0.63528 1.700501,1.14928 3.797874,1.14928 2.098751,0 3.79925,-0.514 3.79925,-1.14928 v 6.8957 c 0,0.63528 -1.700498,1.15067 -3.79925,1.15067 -2.097373,0 -3.797874,-0.51539 -3.797874,-1.15067 v -6.8957"
       style="fill:#cacaca;fill-opacity:1;fill-rule:nonzero;stroke:none;stroke-width:0.35277775" />
    <path
       inkscape:connector-curvature="0"
       id="path13630"
       d="m 50.54533,115.40439 c 0,-0.6339 1.700501,-1.14928 3.797874,-1.14928 2.098751,0 3.79925,0.51538 3.79925,1.14928 0,0.63528 -1.700498,1.14928 -3.79925,1.14928 -2.097373,0 -3.797874,-0.514 -3.797874,-1.14928"
       style="fill:#e3e3e3;fill-opacity:1;fill-rule:nonzero;stroke:none;stroke-width:0.35277775" />
    <g
       transform="matrix(0.35277777,0,0,0.35277777,-66.244783,92.880357)"
       style="clip-rule:nonzero"
       id="g13634"
       clip-path="url(#clip19)">
      <path
         inkscape:connector-curvature="0"
         id="path13632"
         transform="matrix(1,0,0,-1,352.595,63.848)"
         d="m -0.00125,3.4375e-4 c 0,-1.80078075 -4.820312,-3.25781275 -10.769531,-3.25781275 -5.945313,0 -10.765625,1.457032 -10.765625,3.25781275 0,1.79687525 4.820312,3.25781225 10.765625,3.25781225 5.949219,0 10.769531,-1.460937 10.769531,-3.25781225 z m 0,0"
         style="fill:none;stroke:#000202;stroke-width:0.5;stroke-linecap:butt;stroke-linejoin:miter;stroke-miterlimit:8;stroke-opacity:1" />
    </g>
    <g
       transform="matrix(0.35277777,0,0,0.35277777,-66.244783,92.880357)"
       style="clip-rule:nonzero"
       id="g13638"
       clip-path="url(#clip20)">
      <path
         inkscape:connector-curvature="0"
         id="path13636"
         transform="matrix(1,0,0,-1,352.595,63.848)"
         d="M -0.00125,3.4375e-4 V -19.546531 c 0,-1.800781 -4.820312,-3.261719 -10.769531,-3.261719 -5.945313,0 -10.765625,1.460938 -10.765625,3.261719 V 3.4375e-4"
         style="fill:none;stroke:#000202;stroke-width:0.5;stroke-linecap:butt;stroke-linejoin:miter;stroke-miterlimit:8;stroke-opacity:1" />
    </g>
    <path
       inkscape:connector-curvature="0"
       id="path13640"
       d="m 49.121818,118.59455 c 0.395494,-0.003 0.566373,1.79283 0.879184,1.79558 0.374828,0.003 0.55535,-2.55212 0.880571,-2.55626 0.410654,-0.004 0.642165,4.07486 1.014235,4.07486 0.416168,10e-4 0.599448,-5.10012 1.081757,-5.10976 0.494718,-0.0124 0.883325,5.32887 1.420759,5.31785 h 0.08406 c 0.538811,0.011 0.926042,-5.33026 1.420754,-5.31785 0.482315,0.01 0.665594,5.11114 1.081763,5.10976 0.373446,0 0.604956,-4.07899 1.015616,-4.07486 0.325215,0.004 0.505738,2.55902 0.879184,2.55626 0.314195,-0.003 0.485071,-1.79834 0.879189,-1.79558"
       style="fill:none;stroke:#e63f42;stroke-width:0.35277775;stroke-linecap:butt;stroke-linejoin:miter;stroke-miterlimit:10;stroke-opacity:1" />
    <path
       inkscape:connector-curvature="0"
       id="path13642"
       d="m 2.4766022,118.85362 c 0.3913646,-4.05281 0.5622395,-3.81992 0.8667855,-3.81992 0.5539705,0.001 0.6077162,7.62468 1.1837353,7.63984 0.5856674,0.0152 1.0073463,-7.48137 1.544782,-7.46621 0.525032,0.0165 0.7248454,7.17682 1.1768421,7.17545 0.405144,0 0.6573271,-5.72713 1.1038099,-5.72024 0.3541569,0.006 0.5498359,3.59254 0.9563592,3.58703 0.3417536,-0.004 0.5264116,-2.52456 0.9563598,-2.52043 0.225996,0.001 0.261824,0.69867 0.735869,1.0666 0.201196,0.15572 1.215433,0.12403 1.963706,0.0965"
       style="fill:none;stroke:#e63f42;stroke-width:0.35277775;stroke-linecap:butt;stroke-linejoin:miter;stroke-miterlimit:10;stroke-opacity:1" />
    <path
       inkscape:connector-curvature="0"
       id="path13644"
       d="m 11.64469,119.63497 -0.08131,-0.21084 1.379417,-0.53606 -1.401466,-0.47542 0.07304,-0.2136 1.987134,0.67524 -1.956816,0.76068"
       style="fill:#e63f42;fill-opacity:1;fill-rule:nonzero;stroke:none;stroke-width:0.35277775" />
    <path
       inkscape:connector-curvature="0"
       id="path13646"
       d="m 27.295069,123.53344 h 7.733551 v -9.36102 h -7.733551 z m 0,0"
       style="fill:#ffffff;fill-opacity:1;fill-rule:nonzero;stroke:none;stroke-width:0.35277775" />
    <path
       inkscape:connector-curvature="0"
       id="path13648"
       d="m 27.362594,115.40439 c 0,0.63528 1.700498,1.14928 3.799249,1.14928 2.098755,0 3.799253,-0.514 3.799253,-1.14928 v 6.8957 c 0,0.63528 -1.700498,1.15067 -3.799253,1.15067 -2.098751,0 -3.799249,-0.51539 -3.799249,-1.15067 v -6.8957"
       style="fill:#cacaca;fill-opacity:1;fill-rule:nonzero;stroke:none;stroke-width:0.35277775" />
    <path
       inkscape:connector-curvature="0"
       id="path13650"
       d="m 27.362594,115.40439 c 0,-0.6339 1.700498,-1.14928 3.799249,-1.14928 2.098755,0 3.799253,0.51538 3.799253,1.14928 0,0.63528 -1.700498,1.14928 -3.799253,1.14928 -2.098751,0 -3.799249,-0.514 -3.799249,-1.14928"
       style="fill:#e3e3e3;fill-opacity:1;fill-rule:nonzero;stroke:none;stroke-width:0.35277775" />
    <g
       transform="matrix(0.35277777,0,0,0.35277777,-66.244783,92.880357)"
       style="clip-rule:nonzero"
       id="g13654"
       clip-path="url(#clip21)">
      <path
         inkscape:connector-curvature="0"
         id="path13652"
         transform="matrix(1,0,0,-1,286.883,63.848)"
         d="m -1.875e-4,3.4375e-4 c 0,-1.80078075 -4.8203125,-3.25781275 -10.7695315,-3.25781275 -5.949218,0 -10.769531,1.457032 -10.769531,3.25781275 0,1.79687525 4.820313,3.25781225 10.769531,3.25781225 5.949219,0 10.7695315,-1.460937 10.7695315,-3.25781225 z m 0,0"
         style="fill:none;stroke:#000202;stroke-width:0.5;stroke-linecap:butt;stroke-linejoin:miter;stroke-miterlimit:8;stroke-opacity:1" />
    </g>
    <g
       transform="matrix(0.35277777,0,0,0.35277777,-66.244783,92.880357)"
       style="clip-rule:nonzero"
       id="g13658"
       clip-path="url(#clip22)">
      <path
         inkscape:connector-curvature="0"
         id="path13656"
         transform="matrix(1,0,0,-1,286.883,63.848)"
         d="M -1.875e-4,3.4375e-4 V -19.546531 c 0,-1.800781 -4.8203125,-3.261719 -10.7695315,-3.261719 -5.949218,0 -10.769531,1.460938 -10.769531,3.261719 V 3.4375e-4"
         style="fill:none;stroke:#000202;stroke-width:0.5;stroke-linecap:butt;stroke-linejoin:miter;stroke-miterlimit:8;stroke-opacity:1" />
    </g>
    <path
       inkscape:connector-curvature="0"
       id="path13660"
       d="m 25.327232,118.3906 c 0.434082,-0.001 0.621495,0.96049 0.964625,0.96187 0.410658,0.001 0.609095,-1.36701 0.966004,-1.36977 0.450621,-0.003 0.70418,2.18281 1.112079,2.18419 0.457506,0 0.658703,-2.73265 1.18787,-2.73816 0.541567,-0.007 0.968758,2.85392 1.558557,2.8484 h 0.09095 c 0.59118,0.006 1.016992,-2.85529 1.558563,-2.8484 0.530542,0.006 0.731734,2.73816 1.187865,2.73816 0.4079,-10e-4 0.662839,-2.18695 1.113457,-2.18419 0.356912,0.003 0.553974,1.37115 0.964628,1.36977 0.343128,-10e-4 0.530543,-0.96325 0.964623,-0.96187"
       style="fill:none;stroke:#e63f42;stroke-width:0.17638887;stroke-linecap:butt;stroke-linejoin:miter;stroke-miterlimit:10;stroke-opacity:1" />
    <path
       inkscape:connector-curvature="0"
       id="path13662"
       d="M 72.530551,123.53344 H 80.2641 v -9.36102 h -7.733549 z m 0,0"
       style="fill:#ffffff;fill-opacity:1;fill-rule:nonzero;stroke:none;stroke-width:0.35277775" />
    <path
       inkscape:connector-curvature="0"
       id="path13664"
       d="m 72.598073,115.40439 c 0,0.63528 1.700498,1.14928 3.799252,1.14928 2.098752,0 3.79925,-0.514 3.79925,-1.14928 v 6.8957 c 0,0.63528 -1.700498,1.15067 -3.79925,1.15067 -2.098754,0 -3.799252,-0.51539 -3.799252,-1.15067 v -6.8957"
       style="fill:#cacaca;fill-opacity:1;fill-rule:nonzero;stroke:none;stroke-width:0.35277775" />
    <path
       inkscape:connector-curvature="0"
       id="path13666"
       d="m 72.598073,115.40439 c 0,-0.6339 1.700498,-1.14928 3.799252,-1.14928 2.098752,0 3.79925,0.51538 3.79925,1.14928 0,0.63528 -1.700498,1.14928 -3.79925,1.14928 -2.098754,0 -3.799252,-0.514 -3.799252,-1.14928"
       style="fill:#e3e3e3;fill-opacity:1;fill-rule:nonzero;stroke:none;stroke-width:0.35277775" />
    <path
       inkscape:connector-curvature="0"
       id="path13668"
       d="m 80.196575,115.40439 c 0,0.63528 -1.700498,1.14928 -3.79925,1.14928 -2.098754,0 -3.799252,-0.514 -3.799252,-1.14928 0,-0.6339 1.700498,-1.14928 3.799252,-1.14928 2.098752,0 3.79925,0.51538 3.79925,1.14928 z m 0,0"
       style="fill:none;stroke:#000202;stroke-width:0.17638887;stroke-linecap:butt;stroke-linejoin:miter;stroke-miterlimit:8;stroke-opacity:1" />
    <path
       inkscape:connector-curvature="0"
       id="path13670"
       d="m 80.196575,115.40439 v 6.8957 c 0,0.63528 -1.700498,1.15067 -3.79925,1.15067 -2.098754,0 -3.799252,-0.51539 -3.799252,-1.15067 v -6.8957"
       style="fill:none;stroke:#000202;stroke-width:0.17638887;stroke-linecap:butt;stroke-linejoin:miter;stroke-miterlimit:8;stroke-opacity:1" />
    <path
       inkscape:connector-curvature="0"
       id="path13672"
       d="m 73.616443,118.69652 c 0.205328,-0.001 0.294902,0.9605 0.458888,0.96187 0.195681,0.001 0.290767,-1.36701 0.460264,-1.36977 0.214974,-10e-4 0.336241,2.1842 0.530548,2.1842 0.217726,0 0.31419,-2.73265 0.56637,-2.73817 0.259072,-0.007 0.461645,2.8553 0.742762,2.84841 h 0.0441 c 0.281122,0.007 0.483693,-2.8553 0.742762,-2.84841 0.252185,0.006 0.348644,2.73817 0.566375,2.73817 0.194302,0 0.315571,-2.18557 0.530545,-2.1842 0.1695,0.003 0.264584,1.37115 0.460264,1.36977 0.163989,-10e-4 0.252182,-0.96324 0.460264,-0.96187"
       style="fill:none;stroke:#457dbf;stroke-width:0.17638887;stroke-linecap:butt;stroke-linejoin:miter;stroke-miterlimit:10;stroke-opacity:1" />
    <path
       inkscape:connector-curvature="0"
       id="path13674"
       d="m 95.600289,118.47328 c 0.206703,-0.004 0.296275,2.3785 0.458885,2.38263 0.195683,0.004 0.290767,-3.38584 0.460267,-3.39135 0.214971,-0.006 0.336238,5.40604 0.530542,5.40604 0.290767,0.001 0.249423,-6.76065 0.566373,-6.77995 0.259074,-0.0151 0.461642,7.06934 0.742764,7.05556 h 0.0441 c 0.28112,0.0138 0.485071,-7.07071 0.742765,-7.05556 0.252179,0.0152 0.348641,6.78133 0.566372,6.77995 0.194305,0 0.315573,-5.41155 0.530543,-5.40604 0.1695,0.006 0.26458,3.39548 0.46027,3.39135 0.16398,-0.004 0.25355,-2.38676 0.45888,-2.38263"
       style="fill:none;stroke:#457dbf;stroke-width:0.35277775;stroke-linecap:butt;stroke-linejoin:miter;stroke-miterlimit:10;stroke-opacity:1" />
    <path
       inkscape:connector-curvature="0"
       id="path13676"
       d="m 117.18863,118.85362 c 0.22738,-4.05281 0.3266,-3.81992 0.50299,-3.81992 0.32246,0.001 0.35415,7.62468 0.68764,7.63984 0.34037,0.0152 0.58567,-7.48137 0.89848,-7.46621 0.30455,0.0165 0.4203,7.17682 0.6835,7.17545 0.23565,0 0.38172,-5.72713 0.64079,-5.72024 0.20533,0.006 0.31971,3.59254 0.55673,3.58703 0.19706,-0.004 0.30593,-2.52456 0.55535,-2.52043 0.13091,0.001 0.15158,0.69867 0.42719,1.0666 0.11162,0.14883 1.18512,0.12678 1.91961,0.1006"
       style="fill:none;stroke:#457dbf;stroke-width:0.35277775;stroke-linecap:butt;stroke-linejoin:miter;stroke-miterlimit:10;stroke-opacity:1" />
    <path
       inkscape:connector-curvature="0"
       id="path13678"
       d="m 122.74213,119.63359 -0.0827,-0.21084 1.37942,-0.53468 -1.40009,-0.4768 0.0717,-0.2136 1.98851,0.67662 -1.95681,0.7593"
       style="fill:#457dbf;fill-opacity:1;fill-rule:nonzero;stroke:none;stroke-width:0.35277775" />
    <path
       inkscape:connector-curvature="0"
       id="path13680"
       d="m 16.55464,118.39198 c 0.07166,0.0551 0.115757,0.15158 0.129537,0.28663 h -0.165365 c -0.01101,-0.062 -0.03305,-0.11438 -0.0689,-0.15572 -0.03583,-0.0413 -0.09371,-0.062 -0.173634,-0.062 -0.108867,0 -0.186037,0.0524 -0.232889,0.15847 -0.0303,0.0689 -0.04547,0.15434 -0.04547,0.25494 0,0.10198 0.02067,0.18741 0.06339,0.25632 0.0441,0.0703 0.111623,0.10473 0.203952,0.10473 0.07028,0 0.126778,-0.022 0.16812,-0.0648 0.04134,-0.0427 0.0689,-0.10198 0.08544,-0.17777 h 0.165365 c -0.0193,0.13505 -0.06615,0.23427 -0.141941,0.29628 -0.07579,0.062 -0.172254,0.0923 -0.290763,0.0923 -0.132291,0 -0.238403,-0.0482 -0.316949,-0.1447 -0.07993,-0.0978 -0.118513,-0.21773 -0.118513,-0.3638 0,-0.17776 0.04272,-0.31695 0.129537,-0.41617 0.08681,-0.0992 0.197058,-0.14882 0.330729,-0.14882 0.114378,0 0.206707,0.0276 0.278363,0.0841"
       style="fill:#211e1e;fill-opacity:1;fill-rule:nonzero;stroke:none;stroke-width:0.35277775" />
    <path
       inkscape:connector-curvature="0"
       id="path13682"
       d="m 17.484816,119.11269 c 0.04134,-0.0854 0.06201,-0.18052 0.06201,-0.28525 0,-0.0937 -0.01517,-0.17088 -0.04548,-0.23013 -0.04685,-0.0937 -0.129533,-0.14056 -0.24529,-0.14056 -0.103353,0 -0.177765,0.04 -0.224621,0.11988 -0.04685,0.0786 -0.07028,0.17502 -0.07028,0.28664 0,0.10886 0.02342,0.19843 0.07028,0.27009 0.04686,0.0717 0.121268,0.10887 0.223245,0.10887 0.111619,0 0.187413,-0.0441 0.230131,-0.12954 z m 0.104729,-0.67386 c 0.08957,0.0868 0.135051,0.21497 0.135051,0.38447 0,0.16399 -0.03996,0.29904 -0.118512,0.40515 -0.07855,0.10611 -0.201193,0.15985 -0.367937,0.15985 -0.139182,0 -0.248045,-0.0469 -0.330729,-0.14194 -0.08131,-0.0937 -0.121268,-0.22049 -0.121268,-0.38034 0,-0.1695 0.04272,-0.30454 0.128157,-0.40652 0.08682,-0.1006 0.201193,-0.15158 0.345888,-0.15158 0.130913,0 0.23978,0.0441 0.32935,0.13091"
       style="fill:#211e1e;fill-opacity:1;fill-rule:nonzero;stroke:none;stroke-width:0.35277775" />
    <path
       inkscape:connector-curvature="0"
       id="path13684"
       d="m 18.104932,118.33686 v 0.67386 c 0,0.0524 0.0069,0.0951 0.02342,0.12815 0.02893,0.0606 0.08406,0.0896 0.165365,0.0896 0.115753,0 0.194303,-0.0524 0.235645,-0.15848 0.02342,-0.0565 0.03447,-0.13505 0.03447,-0.23426 v -0.49885 h 0.170879 v 1.01561 H 18.57348 l 0.0014,-0.15021 c -0.02067,0.0386 -0.04823,0.0717 -0.07993,0.0978 -0.06477,0.0524 -0.141936,0.0799 -0.23289,0.0799 -0.141936,0 -0.2384,-0.0482 -0.290762,-0.14469 -0.02755,-0.0524 -0.04134,-0.12127 -0.04134,-0.20809 v -0.69039 h 0.17501"
       style="fill:#211e1e;fill-opacity:1;fill-rule:nonzero;stroke:none;stroke-width:0.35277775" />
    <path
       inkscape:connector-curvature="0"
       id="path13686"
       d="m 19.640066,119.1375 c 0.05375,-0.0662 0.07993,-0.16537 0.07993,-0.29904 0,-0.0799 -0.01242,-0.1502 -0.03583,-0.20808 -0.0441,-0.11162 -0.125398,-0.16812 -0.242534,-0.16812 -0.118509,0 -0.199814,0.0593 -0.243911,0.17776 -0.02342,0.0634 -0.03447,0.14332 -0.03447,0.23978 0,0.0785 0.01101,0.14607 0.03447,0.19982 0.0441,0.10611 0.125402,0.15847 0.243911,0.15847 0.07993,0 0.146074,-0.0345 0.198437,-0.10059 z m -0.640785,-0.79513 h 0.16674 v 0.13505 c 0.03306,-0.0469 0.07028,-0.0827 0.111622,-0.10749 0.05788,-0.0386 0.125402,-0.0565 0.202572,-0.0565 0.115754,0 0.213597,0.0441 0.293522,0.13229 0.08131,0.0882 0.121268,0.2136 0.121268,0.37621 0,0.22186 -0.05788,0.37896 -0.173634,0.47404 -0.07441,0.0606 -0.159851,0.091 -0.257694,0.091 -0.07579,0 -0.140557,-0.0165 -0.192923,-0.051 -0.0303,-0.0193 -0.06477,-0.051 -0.101974,-0.0978 v 0.51815 h -0.169499 v -1.41387"
       style="fill:#211e1e;fill-opacity:1;fill-rule:nonzero;stroke:none;stroke-width:0.35277775" />
    <path
       inkscape:connector-curvature="0"
       id="path13688"
       d="m 20.097577,119.35247 h 0.169499 v -1.39182 h -0.169499 z m 0,0"
       style="fill:#211e1e;fill-opacity:1;fill-rule:nonzero;stroke:none;stroke-width:0.35277775" />
    <path
       inkscape:connector-curvature="0"
       id="path13690"
       d="m 20.52339,118.34237 h 0.173634 v 1.0101 H 20.52339 Z m 0,-0.38172 h 0.173634 v 0.19293 H 20.52339 Z m 0,0"
       style="fill:#211e1e;fill-opacity:1;fill-rule:nonzero;stroke:none;stroke-width:0.35277775" />
    <path
       inkscape:connector-curvature="0"
       id="path13692"
       d="m 20.954717,118.33686 h 0.16123 v 0.14469 c 0.04823,-0.0593 0.09922,-0.10197 0.152961,-0.12816 0.05375,-0.0248 0.112998,-0.0386 0.179144,-0.0386 0.143316,0 0.241159,0.0496 0.292146,0.1502 0.02755,0.0551 0.04134,0.13367 0.04134,0.23565 v 0.65181 h -0.173632 v -0.63941 c 0,-0.062 -0.0096,-0.11162 -0.02755,-0.15021 -0.0303,-0.0634 -0.08544,-0.0951 -0.165364,-0.0951 -0.03996,0 -0.07304,0.004 -0.09922,0.0124 -0.04685,0.0138 -0.08682,0.0427 -0.122643,0.0841 -0.02893,0.0331 -0.04685,0.0675 -0.05512,0.10336 -0.0096,0.0358 -0.01379,0.0868 -0.01379,0.15296 v 0.53192 h -0.1695 v -1.01561"
       style="fill:#211e1e;fill-opacity:1;fill-rule:nonzero;stroke:none;stroke-width:0.35277775" />
    <path
       inkscape:connector-curvature="0"
       id="path13694"
       d="m 22.618008,118.56148 c -0.05099,-0.0606 -0.117133,-0.091 -0.197058,-0.091 -0.118512,0 -0.201196,0.0565 -0.243914,0.16812 -0.02342,0.0606 -0.03583,0.13918 -0.03583,0.23564 0,0.11438 0.02342,0.20257 0.07028,0.26183 0.04547,0.0592 0.107484,0.0896 0.186034,0.0896 0.121267,0 0.206706,-0.0551 0.256314,-0.16536 0.02755,-0.0634 0.04134,-0.13643 0.04134,-0.21911 0,-0.12678 -0.02618,-0.21911 -0.07717,-0.27974 z m -0.02067,-0.18328 c 0.03168,0.022 0.06477,0.0551 0.09784,0.0965 v -0.12678 h 0.158475 v 0.92191 c 0,0.12953 -0.0193,0.23151 -0.05788,0.30592 -0.07028,0.13643 -0.202573,0.20533 -0.398255,0.20533 -0.108864,0 -0.201193,-0.0234 -0.275607,-0.073 -0.07442,-0.0496 -0.115754,-0.1254 -0.124023,-0.23013 h 0.173633 c 0.0069,0.0455 0.02342,0.0813 0.04823,0.10611 0.03859,0.0372 0.09922,0.0565 0.180523,0.0565 0.130916,0 0.216352,-0.0468 0.256318,-0.1378 0.02342,-0.0551 0.03447,-0.15159 0.03306,-0.29077 -0.03447,0.051 -0.07579,0.0896 -0.122647,0.11438 -0.04823,0.0262 -0.111622,0.0386 -0.190168,0.0386 -0.108867,0 -0.205327,-0.0386 -0.288011,-0.11713 -0.0813,-0.0785 -0.122647,-0.20671 -0.122647,-0.38723 0,-0.1695 0.04134,-0.30317 0.124026,-0.39825 0.08268,-0.0951 0.1819,-0.14332 0.300412,-0.14332 0.07855,0 0.14745,0.0207 0.206706,0.0593"
       style="fill:#211e1e;fill-opacity:1;fill-rule:nonzero;stroke:none;stroke-width:0.35277775" />
    <path
       inkscape:connector-curvature="0"
       id="path13696"
       d="m 15.474258,115.94734 c 1.933388,-2.26688 4.816242,-2.53973 6.8144,-0.678"
       style="fill:none;stroke:#211e1e;stroke-width:0.14110757;stroke-linecap:butt;stroke-linejoin:miter;stroke-miterlimit:10;stroke-opacity:1" />
    <path
       inkscape:connector-curvature="0"
       id="path13698"
       d="m 21.62031,115.60421 1.342207,0.42305 -0.304546,-1.3739 -1.037661,0.95085"
       style="fill:#211e1e;fill-opacity:1;fill-rule:nonzero;stroke:none;stroke-width:0.35277775" />
    <path
       inkscape:connector-curvature="0"
       id="path13700"
       d="m 15.474258,121.59867 c 1.933388,2.26688 4.816242,2.53973 6.8144,0.678"
       style="fill:none;stroke:#211e1e;stroke-width:0.14110757;stroke-linecap:butt;stroke-linejoin:miter;stroke-miterlimit:10;stroke-opacity:1" />
    <path
       inkscape:connector-curvature="0"
       id="path13702"
       d="m 22.657971,122.89265 0.304546,-1.37253 -1.342207,0.42168 1.037661,0.95085"
       style="fill:#211e1e;fill-opacity:1;fill-rule:nonzero;stroke:none;stroke-width:0.35277775" />
    <path
       inkscape:connector-curvature="0"
       id="path13704"
       d="m 38.404812,118.33686 h 0.161232 v 0.17638 c 0.01378,-0.0344 0.04685,-0.0758 0.09784,-0.1254 0.05236,-0.0482 0.111617,-0.073 0.179144,-0.073 0.0028,0 0.0083,0 0.01654,10e-4 0.0069,0 0.02066,0.001 0.03859,0.003 v 0.18052 c -0.0097,-10e-4 -0.01929,-0.003 -0.02755,-0.004 -0.0083,0 -0.01791,0 -0.02893,0 -0.08544,0 -0.151585,0.0276 -0.197057,0.0827 -0.04685,0.0551 -0.0689,0.11851 -0.0689,0.19017 v 0.58429 h -0.170885 v -1.01561"
       style="fill:#211e1e;fill-opacity:1;fill-rule:nonzero;stroke:none;stroke-width:0.35277775" />
    <path
       inkscape:connector-curvature="0"
       id="path13706"
       d="m 39.734619,118.76405 c -0.0083,-0.0744 -0.02342,-0.13367 -0.04823,-0.17777 -0.04685,-0.0813 -0.124024,-0.12264 -0.232886,-0.12264 -0.07717,0 -0.141942,0.0289 -0.194303,0.0854 -0.05375,0.0565 -0.08131,0.12816 -0.08406,0.21498 z m -0.06201,-0.39826 c 0.06753,0.0331 0.118512,0.0772 0.15434,0.13092 0.03306,0.051 0.0565,0.11162 0.06753,0.17914 0.0096,0.0469 0.01516,0.12127 0.01516,0.22325 H 39.17101 c 0.0028,0.10335 0.02755,0.18603 0.07303,0.24942 0.0441,0.062 0.11438,0.0937 0.209463,0.0937 0.08819,0 0.158475,-0.0303 0.210839,-0.0896 0.0303,-0.0344 0.05099,-0.073 0.06339,-0.11851 h 0.166745 c -0.0041,0.0372 -0.01791,0.0786 -0.0441,0.12403 -0.02479,0.0455 -0.05237,0.0841 -0.08268,0.113 -0.05099,0.0496 -0.115752,0.0841 -0.191548,0.10197 -0.03996,0.01 -0.08681,0.0152 -0.1378,0.0152 -0.125402,0 -0.232891,-0.0455 -0.319706,-0.13781 -0.08682,-0.0923 -0.130916,-0.22048 -0.130916,-0.38585 0,-0.16398 0.0441,-0.29627 0.132291,-0.39687 0.0882,-0.10198 0.202573,-0.15296 0.344514,-0.15296 0.07165,0 0.140558,0.0165 0.208082,0.051"
       style="fill:#211e1e;fill-opacity:1;fill-rule:nonzero;stroke:none;stroke-width:0.35277775" />
    <path
       inkscape:connector-curvature="0"
       id="path13708"
       d="m 40.22658,119.03414 c 0.0055,0.0565 0.01929,0.1006 0.04409,0.13092 0.04272,0.0537 0.119893,0.0813 0.227378,0.0813 0.06477,0 0.121266,-0.0138 0.170878,-0.0413 0.04823,-0.0262 0.07304,-0.0689 0.07304,-0.12678 0,-0.0441 -0.01929,-0.0758 -0.05926,-0.0992 -0.02479,-0.0138 -0.07442,-0.0303 -0.147453,-0.0482 l -0.1378,-0.0345 c -0.0882,-0.0207 -0.152966,-0.0455 -0.194305,-0.0717 -0.07441,-0.0469 -0.111622,-0.11024 -0.111622,-0.19155 0,-0.0965 0.03447,-0.17363 0.104733,-0.23289 0.07028,-0.0592 0.163986,-0.0896 0.282498,-0.0896 0.155715,0 0.267338,0.0455 0.334865,0.13505 0.04272,0.0565 0.06339,0.11851 0.06339,0.18328 h -0.161229 c -0.0041,-0.0372 -0.01791,-0.073 -0.04272,-0.10473 -0.03996,-0.0441 -0.108865,-0.0662 -0.208084,-0.0662 -0.06615,0 -0.115755,0.0124 -0.150207,0.0372 -0.03305,0.0234 -0.05099,0.0565 -0.05099,0.0965 0,0.0441 0.02342,0.0799 0.06753,0.10611 0.02617,0.0152 0.06339,0.0289 0.114377,0.0413 l 0.114377,0.0276 c 0.125399,0.0303 0.208084,0.0579 0.250801,0.0854 0.06615,0.0441 0.09922,0.113 0.09922,0.20671 0,0.0896 -0.03443,0.16812 -0.103355,0.23289 -0.07028,0.0661 -0.175008,0.0992 -0.316944,0.0992 -0.152966,0 -0.261829,-0.0345 -0.32522,-0.10336 -0.06339,-0.0675 -0.09784,-0.15296 -0.101973,-0.25356 h 0.163986"
       style="fill:#211e1e;fill-opacity:1;fill-rule:nonzero;stroke:none;stroke-width:0.35277775" />
    <path
       inkscape:connector-curvature="0"
       id="path13710"
       d="m 41.724508,119.11269 c 0.04134,-0.0854 0.06201,-0.18052 0.06201,-0.28525 0,-0.0937 -0.01516,-0.17088 -0.0441,-0.23013 -0.04823,-0.0937 -0.129538,-0.14056 -0.24529,-0.14056 -0.103355,0 -0.179147,0.04 -0.226,0.11988 -0.04685,0.0786 -0.07028,0.17502 -0.07028,0.28664 0,0.10886 0.02342,0.19843 0.07028,0.27009 0.04685,0.0717 0.121267,0.10887 0.22324,0.10887 0.111622,0 0.188793,-0.0441 0.230135,-0.12954 z m 0.106108,-0.67386 c 0.08957,0.0868 0.135049,0.21497 0.135049,0.38447 0,0.16399 -0.03996,0.29904 -0.119888,0.40515 -0.07855,0.10611 -0.201197,0.15985 -0.366562,0.15985 -0.139181,0 -0.249425,-0.0469 -0.330729,-0.14194 -0.0813,-0.0937 -0.122642,-0.22049 -0.122642,-0.38034 0,-0.1695 0.04272,-0.30454 0.129534,-0.40652 0.08544,-0.1006 0.201195,-0.15158 0.345885,-0.15158 0.129537,0 0.239781,0.0441 0.329353,0.13091"
       style="fill:#211e1e;fill-opacity:1;fill-rule:nonzero;stroke:none;stroke-width:0.35277775" />
    <path
       inkscape:connector-curvature="0"
       id="path13712"
       d="m 42.173746,118.33686 h 0.162611 v 0.14469 c 0.04823,-0.0593 0.09784,-0.10197 0.151585,-0.12816 0.05374,-0.0248 0.112998,-0.0386 0.179144,-0.0386 0.144695,0 0.241157,0.0496 0.292145,0.1502 0.02755,0.0551 0.04134,0.13367 0.04134,0.23565 v 0.65181 h -0.17363 v -0.63941 c 0,-0.062 -0.0083,-0.11162 -0.02617,-0.15021 -0.03031,-0.0634 -0.08544,-0.0951 -0.165365,-0.0951 -0.03996,0 -0.07304,0.004 -0.09922,0.0124 -0.04685,0.0138 -0.0882,0.0427 -0.124023,0.0841 -0.02755,0.0331 -0.04686,0.0675 -0.05512,0.10336 -0.0083,0.0358 -0.01241,0.0868 -0.01241,0.15296 v 0.53192 h -0.170897 v -1.01561"
       style="fill:#211e1e;fill-opacity:1;fill-rule:nonzero;stroke:none;stroke-width:0.35277775" />
    <path
       inkscape:connector-curvature="0"
       id="path13714"
       d="m 43.437409,119.19951 c 0.03583,0.0276 0.07855,0.0427 0.128159,0.0427 0.06063,0 0.118507,-0.0152 0.173631,-0.0427 0.09508,-0.0455 0.143314,-0.12127 0.143314,-0.226 v -0.13643 c -0.02066,0.0124 -0.04823,0.0234 -0.0813,0.0331 -0.03171,0.008 -0.06477,0.0152 -0.09646,0.0193 l -0.101976,0.0124 c -0.06201,0.008 -0.108865,0.0207 -0.14056,0.0386 -0.05237,0.0303 -0.07855,0.0772 -0.07855,0.14194 0,0.0496 0.01791,0.0882 0.05374,0.11713 z m 0.35967,-0.46164 c 0.03858,-0.004 0.06476,-0.0207 0.07854,-0.0482 0.0069,-0.0165 0.01101,-0.0372 0.01101,-0.0661 0,-0.0579 -0.02066,-0.1006 -0.06201,-0.12678 -0.04133,-0.0262 -0.100576,-0.04 -0.177747,-0.04 -0.08819,0 -0.151585,0.0248 -0.188793,0.073 -0.02066,0.0262 -0.03446,0.0661 -0.03996,0.11851 h -0.159853 c 0.0041,-0.1254 0.0441,-0.21222 0.121266,-0.26182 0.07855,-0.0496 0.1695,-0.073 0.271473,-0.073 0.119894,0 0.216355,0.0221 0.290767,0.0675 0.07442,0.0455 0.110244,0.11576 0.110244,0.21222 v 0.58567 c 0,0.0165 0.0041,0.0317 0.01101,0.0413 0.0083,0.011 0.02204,0.0165 0.04686,0.0165 0.0069,0 0.01516,0 0.02479,-0.001 0.0096,-0.001 0.01929,-0.003 0.0303,-0.004 v 0.1254 c -0.02617,0.008 -0.04686,0.0124 -0.06064,0.0152 -0.01378,0.001 -0.03306,0.003 -0.0565,0.003 -0.05925,0 -0.101973,-0.0221 -0.128156,-0.0634 -0.01378,-0.0221 -0.02342,-0.0524 -0.02893,-0.0937 -0.03443,0.0455 -0.08544,0.0854 -0.150204,0.11851 -0.06477,0.0344 -0.136427,0.051 -0.214974,0.051 -0.09371,0 -0.170879,-0.0289 -0.230135,-0.0854 -0.06063,-0.0579 -0.08957,-0.12954 -0.08957,-0.21497 0,-0.0937 0.02893,-0.16675 0.08819,-0.21911 0.05788,-0.051 0.135049,-0.0827 0.230132,-0.0951 l 0.272852,-0.0345"
       style="fill:#211e1e;fill-opacity:1;fill-rule:nonzero;stroke:none;stroke-width:0.35277775" />
    <path
       inkscape:connector-curvature="0"
       id="path13716"
       d="m 44.331754,118.33686 h 0.16261 v 0.14469 c 0.04685,-0.0593 0.09784,-0.10197 0.151585,-0.12816 0.05374,-0.0248 0.114377,-0.0386 0.179145,-0.0386 0.144695,0 0.241154,0.0496 0.292142,0.1502 0.02755,0.0551 0.04134,0.13367 0.04134,0.23565 v 0.65181 h -0.173632 v -0.63941 c 0,-0.062 -0.0083,-0.11162 -0.02617,-0.15021 -0.0303,-0.0634 -0.08544,-0.0951 -0.165365,-0.0951 -0.03997,0 -0.07304,0.004 -0.09922,0.0124 -0.04686,0.0138 -0.0882,0.0427 -0.124027,0.0841 -0.02755,0.0331 -0.04685,0.0675 -0.05512,0.10336 -0.0083,0.0358 -0.01238,0.0868 -0.01238,0.15296 v 0.53192 h -0.170879 v -1.01561"
       style="fill:#211e1e;fill-opacity:1;fill-rule:nonzero;stroke:none;stroke-width:0.35277775" />
    <path
       inkscape:connector-curvature="0"
       id="path13718"
       d="m 46.081864,118.39198 c 0.07166,0.0551 0.114377,0.15158 0.129538,0.28663 h -0.166746 c -0.0096,-0.062 -0.03305,-0.11438 -0.0689,-0.15572 -0.03583,-0.0413 -0.09371,-0.062 -0.173633,-0.062 -0.108865,0 -0.186034,0.0524 -0.232892,0.15847 -0.0303,0.0689 -0.04547,0.15434 -0.04547,0.25494 0,0.10198 0.02204,0.18741 0.06477,0.25632 0.04272,0.0703 0.110244,0.10473 0.202573,0.10473 0.07028,0 0.12678,-0.022 0.168119,-0.0648 0.04134,-0.0427 0.07028,-0.10198 0.08544,-0.17777 h 0.166746 c -0.01929,0.13505 -0.06615,0.23427 -0.141941,0.29628 -0.07579,0.062 -0.17363,0.0923 -0.292143,0.0923 -0.132291,0 -0.2384,-0.0482 -0.316949,-0.1447 -0.07855,-0.0978 -0.118512,-0.21773 -0.118512,-0.3638 0,-0.17776 0.0441,-0.31695 0.129537,-0.41617 0.08682,-0.0992 0.197056,-0.14882 0.330729,-0.14882 0.114377,0 0.208082,0.0276 0.279741,0.0841"
       style="fill:#211e1e;fill-opacity:1;fill-rule:nonzero;stroke:none;stroke-width:0.35277775" />
    <path
       inkscape:connector-curvature="0"
       id="path13720"
       d="m 47.069916,118.76405 c -0.0083,-0.0744 -0.02341,-0.13367 -0.04823,-0.17777 -0.04685,-0.0813 -0.124024,-0.12264 -0.232887,-0.12264 -0.07717,0 -0.141941,0.0289 -0.194307,0.0854 -0.05374,0.0565 -0.0813,0.12816 -0.08406,0.21498 z m -0.06201,-0.39826 c 0.06752,0.0331 0.118512,0.0772 0.154339,0.13092 0.03306,0.051 0.0565,0.11162 0.06753,0.17914 0.0096,0.0469 0.01516,0.12127 0.01516,0.22325 h -0.738629 c 0.0028,0.10335 0.02755,0.18603 0.07304,0.24942 0.04409,0.062 0.114374,0.0937 0.20946,0.0937 0.0882,0 0.158472,-0.0303 0.210838,-0.0896 0.0303,-0.0344 0.05099,-0.073 0.06339,-0.11851 h 0.166743 c -0.0041,0.0372 -0.01791,0.0786 -0.0441,0.12403 -0.02479,0.0455 -0.05237,0.0841 -0.08268,0.113 -0.05099,0.0496 -0.115755,0.0841 -0.191547,0.10197 -0.03996,0.01 -0.08682,0.0152 -0.137803,0.0152 -0.125402,0 -0.231511,-0.0455 -0.319704,-0.13781 -0.08682,-0.0923 -0.130916,-0.22048 -0.130916,-0.38585 0,-0.16398 0.04409,-0.29627 0.132291,-0.39687 0.08819,-0.10198 0.202571,-0.15296 0.344512,-0.15296 0.07166,0 0.140557,0.0165 0.208081,0.051"
       style="fill:#211e1e;fill-opacity:1;fill-rule:nonzero;stroke:none;stroke-width:0.35277775" />
    <path
       inkscape:connector-curvature="0"
       id="path13722"
       d="m 38.967052,115.94734 c 1.93339,-2.26688 4.816242,-2.53973 6.814402,-0.678"
       style="fill:none;stroke:#211e1e;stroke-width:0.14110757;stroke-linecap:butt;stroke-linejoin:miter;stroke-miterlimit:10;stroke-opacity:1" />
    <path
       inkscape:connector-curvature="0"
       id="path13724"
       d="m 45.111725,115.60421 1.34221,0.42305 -0.304546,-1.3739 -1.037664,0.95085"
       style="fill:#211e1e;fill-opacity:1;fill-rule:nonzero;stroke:none;stroke-width:0.35277775" />
    <path
       inkscape:connector-curvature="0"
       id="path13726"
       d="m 38.967052,121.59867 c 1.93339,2.26688 4.816242,2.53973 6.814402,0.678"
       style="fill:none;stroke:#211e1e;stroke-width:0.14110757;stroke-linecap:butt;stroke-linejoin:miter;stroke-miterlimit:10;stroke-opacity:1" />
    <path
       inkscape:connector-curvature="0"
       id="path13728"
       d="m 46.149389,122.89265 0.304546,-1.37253 -1.34221,0.42168 1.037664,0.95085"
       style="fill:#211e1e;fill-opacity:1;fill-rule:nonzero;stroke:none;stroke-width:0.35277775" />
    <path
       inkscape:connector-curvature="0"
       id="path13730"
       d="m 63.895763,117.20135 c 0.07166,0.0551 0.114376,0.15021 0.128156,0.28663 h -0.165365 c -0.0096,-0.062 -0.03305,-0.11437 -0.0689,-0.15571 -0.03583,-0.0413 -0.0937,-0.062 -0.173635,-0.062 -0.108863,0 -0.186034,0.0524 -0.232886,0.15848 -0.0303,0.0689 -0.04548,0.15434 -0.04548,0.25494 0,0.10197 0.02204,0.18741 0.06477,0.25631 0.04272,0.0689 0.110244,0.10335 0.20257,0.10335 0.07028,0 0.126781,-0.0207 0.168122,-0.0634 0.04134,-0.0441 0.07028,-0.10335 0.08544,-0.17776 h 0.165365 c -0.01791,0.13504 -0.06615,0.23288 -0.141936,0.2949 -0.07579,0.062 -0.172254,0.0937 -0.290766,0.0937 -0.132292,0 -0.2384,-0.0482 -0.31695,-0.14469 -0.07992,-0.0978 -0.118509,-0.21911 -0.118509,-0.3638 0,-0.17777 0.04272,-0.31695 0.129532,-0.41617 0.08682,-0.0992 0.197061,-0.14883 0.330729,-0.14883 0.114379,0 0.208087,0.0276 0.279744,0.0841"
       style="fill:#211e1e;fill-opacity:1;fill-rule:nonzero;stroke:none;stroke-width:0.35277775" />
    <path
       inkscape:connector-curvature="0"
       id="path13732"
       d="m 64.200309,117.14623 h 0.161232 v 0.17501 c 0.01378,-0.0331 0.04547,-0.0744 0.09784,-0.12402 0.05237,-0.0496 0.111622,-0.073 0.179144,-0.073 0.0028,0 0.0083,0 0.01654,0 0.0069,0.001 0.01929,0.003 0.03858,0.004 v 0.18053 c -0.01101,-0.003 -0.01929,-0.003 -0.02893,-0.004 -0.0083,0 -0.01654,-0.001 -0.02755,-0.001 -0.08544,0 -0.151585,0.0276 -0.198438,0.0841 -0.04548,0.0551 -0.0689,0.11851 -0.0689,0.19016 v 0.58292 h -0.1695 v -1.01424"
       style="fill:#211e1e;fill-opacity:1;fill-rule:nonzero;stroke:none;stroke-width:0.35277775" />
    <path
       inkscape:connector-curvature="0"
       id="path13734"
       d="m 65.470862,117.92207 c 0.04134,-0.0854 0.06201,-0.18053 0.06201,-0.28526 0,-0.0951 -0.01516,-0.17087 -0.04548,-0.23013 -0.04685,-0.0937 -0.128157,-0.14056 -0.24529,-0.14056 -0.103352,0 -0.177769,0.04 -0.224621,0.11989 -0.04685,0.0786 -0.07028,0.17501 -0.07028,0.28663 0,0.10887 0.02342,0.19844 0.07028,0.2701 0.04685,0.0717 0.121269,0.10748 0.223242,0.10748 0.111623,0 0.187412,-0.0427 0.230135,-0.12815 z m 0.10473,-0.67386 c 0.09095,0.0868 0.135046,0.21497 0.135046,0.38447 0,0.16261 -0.03858,0.29765 -0.11851,0.40514 -0.07855,0.10611 -0.201194,0.15985 -0.367935,0.15985 -0.137805,0 -0.248049,-0.0469 -0.329353,-0.14193 -0.0813,-0.0937 -0.122645,-0.22049 -0.122645,-0.38034 0,-0.1695 0.04272,-0.30593 0.128159,-0.40652 0.08681,-0.1006 0.20257,-0.15159 0.347263,-0.15159 0.129537,0 0.239779,0.0441 0.327975,0.13092"
       style="fill:#211e1e;fill-opacity:1;fill-rule:nonzero;stroke:none;stroke-width:0.35277775" />
    <path
       inkscape:connector-curvature="0"
       id="path13736"
       d="m 66.022076,117.84352 c 0.0041,0.0565 0.01929,0.1006 0.04272,0.13091 0.0441,0.0538 0.119888,0.0813 0.228753,0.0813 0.06477,0 0.121269,-0.0138 0.1695,-0.0413 0.04961,-0.0262 0.07441,-0.0689 0.07441,-0.12677 0,-0.0441 -0.02066,-0.0772 -0.05925,-0.0992 -0.02479,-0.0138 -0.07441,-0.0303 -0.148828,-0.0482 l -0.136427,-0.0345 c -0.08819,-0.022 -0.152961,-0.0455 -0.195683,-0.0716 -0.07441,-0.0469 -0.111617,-0.11025 -0.111617,-0.19155 0,-0.0965 0.03583,-0.17364 0.106108,-0.23289 0.0689,-0.0593 0.163984,-0.0896 0.282496,-0.0896 0.154342,0 0.265964,0.0455 0.334864,0.13504 0.04272,0.0565 0.06339,0.11714 0.06201,0.18328 h -0.161229 c -0.0028,-0.0386 -0.01654,-0.073 -0.04134,-0.10473 -0.03996,-0.0441 -0.108866,-0.0661 -0.208085,-0.0661 -0.06615,0 -0.115755,0.011 -0.150204,0.0358 -0.03447,0.0248 -0.05099,0.0579 -0.05099,0.0978 0,0.0441 0.02204,0.0785 0.06752,0.1061 0.02479,0.0152 0.06339,0.0289 0.112998,0.0413 l 0.115758,0.0276 c 0.124021,0.0289 0.208082,0.0579 0.250804,0.0854 0.06615,0.0441 0.09922,0.113 0.09922,0.20532 0,0.091 -0.03447,0.1695 -0.103354,0.23427 -0.07028,0.0662 -0.175014,0.0992 -0.318328,0.0992 -0.151583,0 -0.260451,-0.0344 -0.323837,-0.10335 -0.06339,-0.0689 -0.09784,-0.15297 -0.101979,-0.25356 h 0.163989"
       style="fill:#211e1e;fill-opacity:1;fill-rule:nonzero;stroke:none;stroke-width:0.35277775" />
    <path
       inkscape:connector-curvature="0"
       id="path13738"
       d="m 66.992216,117.84352 c 0.0041,0.0565 0.01929,0.1006 0.04272,0.13091 0.0441,0.0538 0.119888,0.0813 0.228756,0.0813 0.06477,0 0.121266,-0.0138 0.1695,-0.0413 0.04961,-0.0262 0.07441,-0.0689 0.07441,-0.12677 0,-0.0441 -0.02066,-0.0772 -0.05925,-0.0992 -0.02479,-0.0138 -0.07441,-0.0303 -0.148831,-0.0482 l -0.136424,-0.0345 c -0.0882,-0.022 -0.152961,-0.0455 -0.195683,-0.0716 -0.07441,-0.0469 -0.11162,-0.11025 -0.11162,-0.19155 0,-0.0965 0.03583,-0.17364 0.106108,-0.23289 0.0689,-0.0593 0.163986,-0.0896 0.282499,-0.0896 0.154339,0 0.265961,0.0455 0.334864,0.13504 0.04272,0.0565 0.06339,0.11714 0.06201,0.18328 h -0.16123 c -0.0028,-0.0386 -0.01654,-0.073 -0.04134,-0.10473 -0.03996,-0.0441 -0.108863,-0.0661 -0.208082,-0.0661 -0.06615,0 -0.115758,0.011 -0.150207,0.0358 -0.03446,0.0248 -0.05099,0.0579 -0.05099,0.0978 0,0.0441 0.02204,0.0785 0.06752,0.1061 0.02479,0.0152 0.06339,0.0289 0.112998,0.0413 l 0.115755,0.0276 c 0.124024,0.0289 0.208085,0.0579 0.250804,0.0854 0.06615,0.0441 0.09922,0.113 0.09922,0.20532 0,0.091 -0.03446,0.1695 -0.103352,0.23427 -0.07028,0.0662 -0.175014,0.0992 -0.31833,0.0992 -0.15158,0 -0.260448,-0.0344 -0.323834,-0.10335 -0.06339,-0.0689 -0.09784,-0.15297 -0.101979,-0.25356 h 0.163989"
       style="fill:#211e1e;fill-opacity:1;fill-rule:nonzero;stroke:none;stroke-width:0.35277775" />
    <path
       inkscape:connector-curvature="0"
       id="path13740"
       d="m 67.816279,117.70847 h 0.475425 v -0.17501 h -0.475425 z m 0,0"
       style="fill:#211e1e;fill-opacity:1;fill-rule:nonzero;stroke:none;stroke-width:0.35277775" />
    <path
       inkscape:connector-curvature="0"
       id="path13742"
       d="m 62.922869,119.5826 c 0.07166,0.0565 0.114376,0.15159 0.128156,0.28801 H 62.88566 c -0.0096,-0.0634 -0.03305,-0.11575 -0.0689,-0.15709 -0.03583,-0.0414 -0.09371,-0.062 -0.173635,-0.062 -0.108863,0 -0.186034,0.0538 -0.232887,0.15986 -0.0303,0.0689 -0.04548,0.15296 -0.04548,0.25356 0,0.10197 0.02066,0.18741 0.06477,0.25631 0.04272,0.0703 0.110244,0.10473 0.202573,0.10473 0.07028,0 0.126781,-0.0221 0.168119,-0.0648 0.04134,-0.0427 0.07028,-0.10198 0.08544,-0.17639 h 0.165365 c -0.01791,0.13367 -0.06615,0.23288 -0.141936,0.2949 -0.07579,0.062 -0.172254,0.0937 -0.290766,0.0937 -0.132292,0 -0.2384,-0.0496 -0.31695,-0.14607 -0.07855,-0.0965 -0.118512,-0.21773 -0.118512,-0.3638 0,-0.17777 0.04272,-0.31695 0.129535,-0.41479 0.08682,-0.0992 0.197061,-0.14883 0.330729,-0.14883 0.114379,0 0.208087,0.0276 0.279744,0.0827"
       style="fill:#211e1e;fill-opacity:1;fill-rule:nonzero;stroke:none;stroke-width:0.35277775" />
    <path
       inkscape:connector-curvature="0"
       id="path13744"
       d="m 63.851665,120.30469 c 0.04134,-0.0854 0.06201,-0.18052 0.06201,-0.28525 0,-0.0951 -0.01516,-0.17225 -0.04547,-0.23151 -0.04685,-0.0937 -0.128159,-0.13918 -0.24529,-0.13918 -0.103354,0 -0.177768,0.0386 -0.224621,0.11851 -0.04686,0.0799 -0.07028,0.17501 -0.07028,0.28801 0,0.10749 0.02342,0.19706 0.07028,0.27009 0.04685,0.0717 0.121267,0.10749 0.22324,0.10749 0.111622,0 0.188793,-0.0427 0.230131,-0.12816 z m 0.106108,-0.67523 c 0.08958,0.0868 0.13367,0.21635 0.13367,0.38447 0,0.16398 -0.03858,0.29903 -0.118512,0.40514 -0.07854,0.10611 -0.201192,0.15985 -0.367935,0.15985 -0.137803,0 -0.248047,-0.0468 -0.32935,-0.14056 -0.0813,-0.0951 -0.122648,-0.22186 -0.122648,-0.38033 0,-0.17088 0.04272,-0.30593 0.128161,-0.4079 0.08682,-0.1006 0.202568,-0.15159 0.347263,-0.15159 0.129538,0 0.239782,0.0441 0.329351,0.13092"
       style="fill:#211e1e;fill-opacity:1;fill-rule:nonzero;stroke:none;stroke-width:0.35277775" />
    <path
       inkscape:connector-curvature="0"
       id="path13746"
       d="m 64.471784,119.52886 v 0.67386 c 0,0.051 0.0083,0.0937 0.02342,0.12678 0.0303,0.0606 0.08544,0.091 0.165365,0.091 0.115758,0 0.194304,-0.0537 0.237024,-0.15985 0.02204,-0.0565 0.03306,-0.13505 0.03306,-0.23427 v -0.49747 h 0.170873 v 1.01423 H 64.94029 l 0.0028,-0.1502 c -0.02204,0.0386 -0.04961,0.0717 -0.08131,0.0978 -0.06339,0.0537 -0.141936,0.0799 -0.232887,0.0799 -0.141938,0 -0.2384,-0.0482 -0.289385,-0.1447 -0.02893,-0.0524 -0.04272,-0.12127 -0.04272,-0.20808 v -0.68902 h 0.175014"
       style="fill:#211e1e;fill-opacity:1;fill-rule:nonzero;stroke:none;stroke-width:0.35277775" />
    <path
       inkscape:connector-curvature="0"
       id="path13748"
       d="m 66.006918,120.32812 c 0.05374,-0.0661 0.07992,-0.16536 0.07992,-0.29765 0,-0.0813 -0.01241,-0.15159 -0.03583,-0.20947 -0.0441,-0.11162 -0.125402,-0.16812 -0.242535,-0.16812 -0.118513,0 -0.199816,0.0593 -0.243914,0.17777 -0.02342,0.0634 -0.03443,0.14332 -0.03443,0.24116 0,0.0785 0.01101,0.14469 0.03443,0.19981 0.0441,0.10473 0.125401,0.1571 0.243914,0.1571 0.07992,0 0.146071,-0.0331 0.198437,-0.1006 z m -0.640789,-0.79513 h 0.166743 v 0.13505 c 0.03443,-0.0469 0.07166,-0.0827 0.11162,-0.10749 0.05788,-0.0372 0.125402,-0.0565 0.203951,-0.0565 0.114377,0 0.212217,0.0441 0.293521,0.1323 0.07993,0.0882 0.119888,0.21359 0.119888,0.37758 0,0.22048 -0.05788,0.37896 -0.17363,0.47404 -0.07304,0.0593 -0.159853,0.0896 -0.256318,0.0896 -0.07717,0 -0.141935,-0.0165 -0.194302,-0.051 -0.0303,-0.0179 -0.06339,-0.051 -0.100594,-0.0965 v 0.51814 h -0.170879 v -1.41525"
       style="fill:#211e1e;fill-opacity:1;fill-rule:nonzero;stroke:none;stroke-width:0.35277775" />
    <path
       inkscape:connector-curvature="0"
       id="path13750"
       d="m 66.464425,120.54309 h 0.1695 v -1.39181 h -0.1695 z m 0,0"
       style="fill:#211e1e;fill-opacity:1;fill-rule:nonzero;stroke:none;stroke-width:0.35277775" />
    <path
       inkscape:connector-curvature="0"
       id="path13752"
       d="m 66.890238,119.53299 h 0.173635 v 1.0101 h -0.173635 z m 0,-0.38171 h 0.173635 v 0.1943 h -0.173635 z m 0,0"
       style="fill:#211e1e;fill-opacity:1;fill-rule:nonzero;stroke:none;stroke-width:0.35277775" />
    <path
       inkscape:connector-curvature="0"
       id="path13754"
       d="m 67.321567,119.52886 h 0.161229 v 0.14331 c 0.04823,-0.0592 0.09922,-0.10197 0.152963,-0.12677 0.05374,-0.0262 0.112999,-0.04 0.179144,-0.04 0.144693,0 0.241158,0.051 0.292143,0.15159 0.02755,0.0551 0.04134,0.13229 0.04134,0.23564 v 0.65044 h -0.173632 v -0.63941 c 0,-0.062 -0.0083,-0.11163 -0.02755,-0.14883 -0.0303,-0.0634 -0.08544,-0.0951 -0.163989,-0.0951 -0.04134,0 -0.07441,0.004 -0.09922,0.0124 -0.04685,0.0138 -0.08819,0.0413 -0.124023,0.0827 -0.02755,0.0331 -0.04685,0.0675 -0.05512,0.10335 -0.0083,0.0358 -0.01238,0.0868 -0.01238,0.15296 v 0.53193 H 67.32159 v -1.01424"
       style="fill:#211e1e;fill-opacity:1;fill-rule:nonzero;stroke:none;stroke-width:0.35277775" />
    <path
       inkscape:connector-curvature="0"
       id="path13756"
       d="m 68.986235,119.7521 c -0.05237,-0.0606 -0.118512,-0.0909 -0.197056,-0.0909 -0.119894,0 -0.201198,0.0565 -0.245296,0.1695 -0.02341,0.0592 -0.03583,0.1378 -0.03583,0.23564 0,0.11438 0.02342,0.2012 0.07028,0.26045 0.04548,0.0593 0.107487,0.0896 0.186034,0.0896 0.121267,0 0.206706,-0.0551 0.257694,-0.16537 0.02755,-0.0634 0.04134,-0.13642 0.04134,-0.21911 0,-0.1254 -0.02617,-0.21911 -0.07717,-0.27974 z m -0.02204,-0.18328 c 0.03305,0.022 0.06477,0.0551 0.09922,0.0978 v -0.12815 h 0.157096 v 0.9219 c 0,0.12954 -0.01929,0.23151 -0.0565,0.30593 -0.07028,0.1378 -0.203951,0.2067 -0.399632,0.2067 -0.108865,0 -0.201194,-0.0248 -0.275608,-0.0744 -0.07304,-0.0482 -0.115753,-0.1254 -0.124024,-0.22875 h 0.173636 c 0.0083,0.0441 0.02479,0.0799 0.04823,0.10473 0.03858,0.0372 0.09922,0.0565 0.181898,0.0565 0.129537,0 0.214977,-0.0455 0.254939,-0.1378 0.02342,-0.0551 0.03447,-0.15159 0.03306,-0.29077 -0.03446,0.051 -0.07441,0.0896 -0.122645,0.11575 -0.04823,0.0248 -0.11162,0.0372 -0.19017,0.0372 -0.108862,0 -0.205327,-0.0386 -0.286631,-0.11713 -0.08268,-0.0772 -0.124023,-0.20671 -0.124023,-0.38723 0,-0.1695 0.04134,-0.30179 0.124023,-0.39688 0.08268,-0.0965 0.183277,-0.14331 0.300411,-0.14331 0.07855,0 0.148831,0.0193 0.206706,0.0579"
       style="fill:#211e1e;fill-opacity:1;fill-rule:nonzero;stroke:none;stroke-width:0.35277775" />
    <path
       inkscape:connector-curvature="0"
       id="path13758"
       d="m 61.996827,115.94734 c 1.933387,-2.26688 4.816242,-2.53973 6.814399,-0.678"
       style="fill:none;stroke:#211e1e;stroke-width:0.14110757;stroke-linecap:butt;stroke-linejoin:miter;stroke-miterlimit:10;stroke-opacity:1" />
    <path
       inkscape:connector-curvature="0"
       id="path13760"
       d="m 68.142878,115.60421 1.342208,0.42305 -0.304546,-1.3739 -1.037662,0.95085"
       style="fill:#211e1e;fill-opacity:1;fill-rule:nonzero;stroke:none;stroke-width:0.35277775" />
    <path
       inkscape:connector-curvature="0"
       id="path13762"
       d="m 61.996827,121.59867 c 1.933387,2.26688 4.816242,2.53973 6.814399,0.678"
       style="fill:none;stroke:#211e1e;stroke-width:0.14110757;stroke-linecap:butt;stroke-linejoin:miter;stroke-miterlimit:10;stroke-opacity:1" />
    <path
       inkscape:connector-curvature="0"
       id="path13764"
       d="m 69.18054,122.89265 0.304546,-1.37253 -1.342208,0.42168 1.037662,0.95085"
       style="fill:#211e1e;fill-opacity:1;fill-rule:nonzero;stroke:none;stroke-width:0.35277775" />
    <path
       inkscape:connector-curvature="0"
       id="path13766"
       d="m 82.849301,118.33823 h 0.162608 v 0.17501 c 0.01241,-0.0344 0.04548,-0.0758 0.09646,-0.12402 0.05237,-0.0496 0.111623,-0.0744 0.179144,-0.0744 0.0041,0 0.0097,0 0.01654,0.001 0.0083,0 0.02066,0.001 0.03858,0.004 v 0.17914 c -0.0096,-10e-4 -0.01929,-0.003 -0.02755,-0.004 -0.0083,0 -0.01791,0 -0.02755,0 -0.08682,0 -0.152961,0.0276 -0.198437,0.0827 -0.04547,0.0551 -0.0689,0.11852 -0.0689,0.19155 v 0.58291 h -0.170879 v -1.01424"
       style="fill:#211e1e;fill-opacity:1;fill-rule:nonzero;stroke:none;stroke-width:0.35277775" />
    <path
       inkscape:connector-curvature="0"
       id="path13768"
       d="m 84.179107,118.76405 c -0.0069,-0.0744 -0.02341,-0.13229 -0.04823,-0.17777 -0.04685,-0.0813 -0.124023,-0.12264 -0.23151,-0.12264 -0.07855,0 -0.143317,0.0289 -0.195683,0.0854 -0.05237,0.0565 -0.0813,0.12816 -0.08406,0.21498 z m -0.06201,-0.39826 c 0.06752,0.0345 0.11851,0.0772 0.154339,0.13092 0.03306,0.051 0.0565,0.11162 0.06752,0.17914 0.0097,0.0469 0.01516,0.12127 0.01516,0.22325 h -0.73863 c 0.0041,0.10335 0.02755,0.18603 0.07304,0.24942 0.04548,0.062 0.114377,0.0937 0.209463,0.0937 0.08819,0 0.158474,-0.0303 0.210841,-0.0896 0.0303,-0.0331 0.05098,-0.073 0.06339,-0.11851 h 0.168121 c -0.0055,0.0372 -0.01929,0.0786 -0.0441,0.12403 -0.02479,0.0469 -0.05374,0.0841 -0.08406,0.113 -0.05099,0.0496 -0.115755,0.0841 -0.190172,0.10197 -0.04134,0.011 -0.08682,0.0152 -0.139181,0.0152 -0.125402,0 -0.23151,-0.0455 -0.318326,-0.13781 -0.08819,-0.0923 -0.13091,-0.22048 -0.13091,-0.38585 0,-0.1626 0.04409,-0.2949 0.13091,-0.39687 0.0882,-0.10198 0.202573,-0.15296 0.344509,-0.15296 0.07166,0 0.141941,0.0165 0.208087,0.051"
       style="fill:#211e1e;fill-opacity:1;fill-rule:nonzero;stroke:none;stroke-width:0.35277775" />
    <path
       inkscape:connector-curvature="0"
       id="path13770"
       d="m 84.671068,119.03414 c 0.0055,0.0565 0.01929,0.1006 0.0441,0.13092 0.04272,0.0551 0.119888,0.0827 0.227377,0.0827 0.06477,0 0.121267,-0.0138 0.170874,-0.0413 0.04823,-0.0276 0.07304,-0.0703 0.07304,-0.12816 0,-0.0427 -0.01929,-0.0758 -0.05788,-0.0992 -0.02617,-0.0138 -0.07441,-0.0303 -0.148828,-0.0482 l -0.137809,-0.0345 c -0.08819,-0.0207 -0.152961,-0.0455 -0.194303,-0.0717 -0.07441,-0.0455 -0.111619,-0.11024 -0.111619,-0.19155 0,-0.0951 0.03443,-0.17363 0.10473,-0.23289 0.07028,-0.0592 0.163986,-0.0882 0.282498,-0.0882 0.155718,0 0.267338,0.0441 0.336243,0.13367 0.04272,0.0565 0.06339,0.11851 0.06201,0.18466 h -0.161229 c -0.0028,-0.0386 -0.01791,-0.0744 -0.04134,-0.10473 -0.03996,-0.0455 -0.110242,-0.0675 -0.20946,-0.0675 -0.06477,0 -0.115758,0.0124 -0.148831,0.0372 -0.03443,0.0248 -0.05099,0.0565 -0.05099,0.0965 0,0.0441 0.02204,0.0799 0.06615,0.10611 0.02617,0.0152 0.06339,0.0303 0.114379,0.0413 l 0.114377,0.0276 c 0.125402,0.0303 0.209463,0.0593 0.250804,0.0868 0.06615,0.0427 0.100594,0.11162 0.100594,0.20533 0,0.091 -0.03583,0.16812 -0.10473,0.23426 -0.0689,0.0648 -0.175008,0.0978 -0.316949,0.0978 -0.152961,0 -0.260448,-0.0331 -0.325216,-0.10198 -0.06339,-0.0689 -0.09784,-0.15296 -0.101975,-0.25494 h 0.163988"
       style="fill:#211e1e;fill-opacity:1;fill-rule:nonzero;stroke:none;stroke-width:0.35277775" />
    <path
       inkscape:connector-curvature="0"
       id="path13772"
       d="m 86.168994,119.11407 c 0.04134,-0.0854 0.06201,-0.18052 0.06201,-0.28525 0,-0.0951 -0.01378,-0.17226 -0.04409,-0.23151 -0.04823,-0.0937 -0.129535,-0.13919 -0.24529,-0.13919 -0.103354,0 -0.177769,0.0386 -0.224621,0.11851 -0.04823,0.0799 -0.07028,0.17502 -0.07028,0.28801 0,0.10749 0.02204,0.19706 0.07028,0.2701 0.04685,0.0717 0.121267,0.10749 0.221864,0.10749 0.112998,0 0.188791,-0.0427 0.230132,-0.12816 z m 0.106108,-0.67524 c 0.08957,0.0868 0.135051,0.21635 0.135051,0.38447 0,0.16399 -0.03997,0.29904 -0.118512,0.40515 -0.07993,0.10611 -0.202573,0.15985 -0.367937,0.15985 -0.139182,0 -0.249426,-0.0469 -0.330729,-0.14056 -0.0813,-0.0951 -0.122648,-0.22187 -0.122648,-0.38034 0,-0.17088 0.0441,-0.30592 0.129537,-0.4079 0.08544,-0.1006 0.201192,-0.15158 0.345887,-0.15158 0.129538,0 0.239782,0.0441 0.329351,0.13091"
       style="fill:#211e1e;fill-opacity:1;fill-rule:nonzero;stroke:none;stroke-width:0.35277775" />
    <path
       inkscape:connector-curvature="0"
       id="path13774"
       d="m 86.619613,118.33823 h 0.161232 v 0.14332 c 0.04823,-0.0593 0.09922,-0.10197 0.152961,-0.12816 0.05374,-0.0248 0.112998,-0.0386 0.179144,-0.0386 0.143314,0 0.241157,0.051 0.290767,0.1502 0.02893,0.0551 0.04272,0.13367 0.04272,0.23703 v 0.65043 h -0.173633 v -0.63941 c 0,-0.062 -0.0097,-0.11162 -0.02755,-0.15021 -0.03031,-0.0634 -0.08544,-0.0951 -0.165365,-0.0951 -0.03996,0 -0.07304,0.006 -0.09922,0.0124 -0.04685,0.0152 -0.08682,0.0427 -0.122645,0.0841 -0.02893,0.0331 -0.04686,0.0675 -0.05512,0.10336 -0.0097,0.0358 -0.01378,0.0868 -0.01378,0.15296 v 0.53192 h -0.169503 v -1.01423"
       style="fill:#211e1e;fill-opacity:1;fill-rule:nonzero;stroke:none;stroke-width:0.35277775" />
    <path
       inkscape:connector-curvature="0"
       id="path13776"
       d="m 87.883274,119.19951 c 0.03583,0.0276 0.07855,0.0427 0.126778,0.0427 0.06064,0 0.118512,-0.0138 0.175014,-0.0413 0.09508,-0.0469 0.141935,-0.12265 0.141935,-0.22738 v -0.13643 c -0.02066,0.0138 -0.04685,0.0248 -0.07993,0.0331 -0.03305,0.008 -0.06477,0.0152 -0.09646,0.0193 l -0.103354,0.0124 c -0.06201,0.008 -0.108863,0.0221 -0.139181,0.04 -0.05237,0.0289 -0.07993,0.0758 -0.07993,0.14056 0,0.0496 0.01929,0.0882 0.05512,0.11713 z m 0.358288,-0.46027 c 0.03996,-0.006 0.06615,-0.022 0.07855,-0.0496 0.0083,-0.0151 0.01238,-0.0372 0.01238,-0.0661 0,-0.0579 -0.02066,-0.1006 -0.06201,-0.12678 -0.04134,-0.0262 -0.100595,-0.0386 -0.177766,-0.0386 -0.08957,0 -0.151585,0.0234 -0.188791,0.0717 -0.02066,0.0262 -0.03447,0.0661 -0.04134,0.11989 H 87.70411 c 0.0028,-0.12678 0.04272,-0.2136 0.121269,-0.2632 0.07855,-0.0482 0.168121,-0.073 0.271476,-0.073 0.118509,0 0.216352,0.0221 0.290764,0.0675 0.07304,0.0455 0.110241,0.11714 0.110241,0.2136 v 0.58429 c 0,0.0179 0.0041,0.0317 0.01101,0.0427 0.0069,0.01 0.02204,0.0152 0.04548,0.0152 0.0083,0 0.01654,0 0.02479,-0.001 0.01101,-10e-4 0.02066,-0.003 0.03171,-0.004 v 0.12678 c -0.02755,0.007 -0.04685,0.0124 -0.06063,0.0138 -0.01516,10e-4 -0.03305,0.003 -0.05788,0.003 -0.05787,0 -0.100597,-0.0207 -0.12678,-0.062 -0.01379,-0.0234 -0.02479,-0.0537 -0.0303,-0.0951 -0.03447,0.0455 -0.08406,0.0854 -0.148831,0.11851 -0.06615,0.0344 -0.137803,0.051 -0.214971,0.051 -0.09509,0 -0.170878,-0.0289 -0.23151,-0.0854 -0.05926,-0.0579 -0.08957,-0.12954 -0.08957,-0.21498 0,-0.0937 0.0303,-0.16674 0.08819,-0.21773 0.05926,-0.0524 0.135048,-0.0841 0.23151,-0.0965 l 0.271473,-0.0331"
       style="fill:#211e1e;fill-opacity:1;fill-rule:nonzero;stroke:none;stroke-width:0.35277775" />
    <path
       inkscape:connector-curvature="0"
       id="path13778"
       d="m 88.777619,118.33823 h 0.161231 v 0.14332 c 0.04823,-0.0593 0.09922,-0.10197 0.152964,-0.12816 0.05374,-0.0248 0.112998,-0.0386 0.179144,-0.0386 0.143314,0 0.241155,0.051 0.292145,0.1502 0.02755,0.0551 0.04134,0.13367 0.04134,0.23703 v 0.65043 h -0.173632 v -0.63941 c 0,-0.062 -0.0097,-0.11162 -0.02755,-0.15021 -0.03031,-0.0634 -0.08544,-0.0951 -0.165364,-0.0951 -0.03996,0 -0.07304,0.006 -0.09922,0.0124 -0.04685,0.0152 -0.08682,0.0427 -0.122648,0.0841 -0.02893,0.0331 -0.04685,0.0675 -0.05512,0.10336 -0.0096,0.0358 -0.01378,0.0868 -0.01378,0.15296 v 0.53192 h -0.1695 v -1.01423"
       style="fill:#211e1e;fill-opacity:1;fill-rule:nonzero;stroke:none;stroke-width:0.35277775" />
    <path
       inkscape:connector-curvature="0"
       id="path13780"
       d="m 90.526348,118.39198 c 0.07166,0.0551 0.115758,0.15158 0.129537,0.28663 h -0.165364 c -0.01101,-0.062 -0.03306,-0.11438 -0.0689,-0.15572 -0.03583,-0.0413 -0.09371,-0.062 -0.173635,-0.062 -0.108863,0 -0.186034,0.0524 -0.232886,0.15847 -0.0303,0.0689 -0.04548,0.15434 -0.04548,0.25494 0,0.10198 0.02066,0.18741 0.06339,0.25632 0.0441,0.0703 0.111619,0.10473 0.203948,0.10473 0.07028,0 0.126781,-0.022 0.168119,-0.0648 0.04134,-0.0427 0.06891,-0.10198 0.08544,-0.17639 h 0.165364 c -0.01929,0.13367 -0.06615,0.23289 -0.141936,0.2949 -0.07579,0.062 -0.172254,0.0923 -0.290766,0.0923 -0.132292,0 -0.2384,-0.0482 -0.31695,-0.1447 -0.07993,-0.0978 -0.118512,-0.21773 -0.118512,-0.3638 0,-0.17776 0.04272,-0.31695 0.129535,-0.41617 0.08682,-0.0992 0.197061,-0.14882 0.330729,-0.14882 0.114379,0 0.206708,0.0276 0.278363,0.0841"
       style="fill:#211e1e;fill-opacity:1;fill-rule:nonzero;stroke:none;stroke-width:0.35277775" />
    <path
       inkscape:connector-curvature="0"
       id="path13782"
       d="m 91.514405,118.76405 c -0.0069,-0.0744 -0.02341,-0.13229 -0.04823,-0.17777 -0.04548,-0.0813 -0.124026,-0.12264 -0.23151,-0.12264 -0.07855,0 -0.143317,0.0289 -0.195683,0.0854 -0.05237,0.0565 -0.07993,0.12816 -0.08406,0.21498 z m -0.06063,-0.39826 c 0.06614,0.0345 0.118512,0.0772 0.15296,0.13092 0.03446,0.051 0.0565,0.11162 0.06753,0.17914 0.01101,0.0469 0.01516,0.12127 0.01516,0.22325 h -0.737248 c 0.0028,0.10335 0.02617,0.18603 0.07166,0.24942 0.04548,0.062 0.115756,0.0937 0.20946,0.0937 0.0882,0 0.159856,-0.0303 0.212217,-0.0896 0.02893,-0.0331 0.04961,-0.073 0.06201,-0.11851 h 0.168122 c -0.0041,0.0372 -0.01929,0.0786 -0.0441,0.12403 -0.02479,0.0469 -0.05375,0.0841 -0.08406,0.113 -0.05099,0.0496 -0.114377,0.0841 -0.190172,0.10197 -0.04134,0.011 -0.08682,0.0152 -0.137803,0.0152 -0.126781,0 -0.232889,-0.0455 -0.319704,-0.13781 -0.08682,-0.0923 -0.130916,-0.22048 -0.130916,-0.38585 0,-0.1626 0.0441,-0.2949 0.132292,-0.39687 0.08682,-0.10198 0.202573,-0.15296 0.344511,-0.15296 0.07166,0 0.140557,0.0165 0.208084,0.051"
       style="fill:#211e1e;fill-opacity:1;fill-rule:nonzero;stroke:none;stroke-width:0.35277775" />
    <path
       inkscape:connector-curvature="0"
       id="path13784"
       d="m 83.411541,115.94734 c 1.933384,-2.26688 4.814863,-2.53973 6.814396,-0.678"
       style="fill:none;stroke:#211e1e;stroke-width:0.14110757;stroke-linecap:butt;stroke-linejoin:miter;stroke-miterlimit:10;stroke-opacity:1" />
    <path
       inkscape:connector-curvature="0"
       id="path13786"
       d="m 89.557589,115.60421 1.340832,0.42305 -0.304546,-1.3739 -1.036286,0.95085"
       style="fill:#211e1e;fill-opacity:1;fill-rule:nonzero;stroke:none;stroke-width:0.35277775" />
    <path
       inkscape:connector-curvature="0"
       id="path13788"
       d="m 83.411541,121.59867 c 1.933384,2.26688 4.814863,2.53973 6.814396,0.678"
       style="fill:none;stroke:#211e1e;stroke-width:0.14110757;stroke-linecap:butt;stroke-linejoin:miter;stroke-miterlimit:10;stroke-opacity:1" />
    <path
       inkscape:connector-curvature="0"
       id="path13790"
       d="m 90.593875,122.89265 0.305924,-1.37253 -1.34221,0.42168 1.036286,0.95085"
       style="fill:#211e1e;fill-opacity:1;fill-rule:nonzero;stroke:none;stroke-width:0.35277775" />
    <path
       inkscape:connector-curvature="0"
       id="path13792"
       d="m 105.23553,119.11269 c 0.0413,-0.0854 0.062,-0.18052 0.062,-0.28525 0,-0.0937 -0.0152,-0.17088 -0.0441,-0.23013 -0.0482,-0.0937 -0.12954,-0.14056 -0.24529,-0.14056 -0.10336,0 -0.17915,0.04 -0.226,0.11988 -0.0469,0.0786 -0.0703,0.17502 -0.0703,0.28664 0,0.10886 0.0234,0.19843 0.0703,0.27009 0.0469,0.0717 0.12126,0.10887 0.22324,0.10887 0.11162,0 0.18879,-0.0441 0.23013,-0.12954 z m 0.10611,-0.67386 c 0.0896,0.0868 0.13505,0.21497 0.13505,0.38447 0,0.16399 -0.04,0.29904 -0.11989,0.40515 -0.0785,0.10611 -0.2012,0.15985 -0.36656,0.15985 -0.13918,0 -0.24943,-0.0469 -0.33073,-0.14194 -0.0813,-0.0937 -0.12264,-0.22049 -0.12264,-0.38034 0,-0.1695 0.0427,-0.30454 0.12953,-0.40652 0.0854,-0.1006 0.2012,-0.15158 0.34589,-0.15158 0.12953,0 0.23978,0.0441 0.32935,0.13091"
       style="fill:#211e1e;fill-opacity:1;fill-rule:nonzero;stroke:none;stroke-width:0.35277775" />
    <path
       inkscape:connector-curvature="0"
       id="path13794"
       d="m 105.85565,118.33686 v 0.67386 c 0,0.0524 0.008,0.0951 0.0248,0.12815 0.0289,0.0606 0.0841,0.0896 0.16399,0.0896 0.11575,0 0.1943,-0.0524 0.23702,-0.15848 0.022,-0.0565 0.0345,-0.13505 0.0345,-0.23426 v -0.49885 h 0.16949 v 1.01561 h -0.16123 l 0.003,-0.15021 c -0.022,0.0386 -0.0496,0.0717 -0.0813,0.0978 -0.0634,0.0524 -0.14056,0.0799 -0.23289,0.0799 -0.14194,0 -0.2384,-0.0482 -0.28939,-0.14469 -0.0275,-0.0524 -0.0413,-0.12127 -0.0413,-0.20809 v -0.69039 h 0.17363"
       style="fill:#211e1e;fill-opacity:1;fill-rule:nonzero;stroke:none;stroke-width:0.35277775" />
    <path
       inkscape:connector-curvature="0"
       id="path13796"
       d="m 106.79822,118.05436 h 0.17226 v 0.28387 h 0.16261 v 0.13919 h -0.16261 v 0.66145 c 0,0.0358 0.0124,0.0593 0.0372,0.0717 0.0124,0.007 0.0345,0.01 0.0661,0.01 0.008,0 0.0165,0 0.0262,0 0.01,0 0.0207,-10e-4 0.0331,-0.003 v 0.13505 c -0.0193,0.006 -0.04,0.01 -0.062,0.0124 -0.0207,0.003 -0.0427,0.004 -0.0675,0.004 -0.0799,0 -0.13367,-0.0207 -0.16261,-0.062 -0.0275,-0.04 -0.0427,-0.0937 -0.0427,-0.15847 v -0.67111 h -0.13642 v -0.13918 h 0.13642 v -0.28388"
       style="fill:#211e1e;fill-opacity:1;fill-rule:nonzero;stroke:none;stroke-width:0.35277775" />
    <path
       inkscape:connector-curvature="0"
       id="path13798"
       d="m 107.97369,118.39198 c 0.0717,0.0551 0.11438,0.15158 0.12954,0.28663 h -0.16537 c -0.011,-0.062 -0.0344,-0.11438 -0.0703,-0.15572 -0.0358,-0.0413 -0.0937,-0.062 -0.17225,-0.062 -0.11025,0 -0.18742,0.0524 -0.23427,0.15847 -0.0303,0.0689 -0.0455,0.15434 -0.0455,0.25494 0,0.10198 0.022,0.18741 0.0648,0.25632 0.0427,0.0703 0.11024,0.10473 0.20257,0.10473 0.0717,0 0.12677,-0.022 0.16812,-0.0648 0.0413,-0.0427 0.0703,-0.10198 0.0868,-0.17777 h 0.16537 c -0.0193,0.13505 -0.0661,0.23427 -0.14194,0.29628 -0.0758,0.062 -0.17363,0.0923 -0.29077,0.0923 -0.13367,0 -0.2384,-0.0482 -0.31832,-0.1447 -0.0785,-0.0978 -0.11852,-0.21773 -0.11852,-0.3638 0,-0.17776 0.0441,-0.31695 0.13092,-0.41617 0.0854,-0.0992 0.19568,-0.14882 0.33073,-0.14882 0.11437,0 0.2067,0.0276 0.27836,0.0841"
       style="fill:#211e1e;fill-opacity:1;fill-rule:nonzero;stroke:none;stroke-width:0.35277775" />
    <path
       inkscape:connector-curvature="0"
       id="path13800"
       d="m 108.90249,119.11269 c 0.0413,-0.0854 0.062,-0.18052 0.062,-0.28525 0,-0.0937 -0.0138,-0.17088 -0.0441,-0.23013 -0.0482,-0.0937 -0.12953,-0.14056 -0.24529,-0.14056 -0.10335,0 -0.17776,0.04 -0.22462,0.11988 -0.0469,0.0786 -0.0717,0.17502 -0.0717,0.28664 0,0.10886 0.0248,0.19843 0.0717,0.27009 0.0469,0.0717 0.11989,0.10887 0.22187,0.10887 0.113,0 0.18879,-0.0441 0.23013,-0.12954 z m 0.10611,-0.67386 c 0.0896,0.0868 0.13505,0.21497 0.13505,0.38447 0,0.16399 -0.04,0.29904 -0.11852,0.40515 -0.0799,0.10611 -0.20256,0.15985 -0.36793,0.15985 -0.13919,0 -0.24943,-0.0469 -0.33073,-0.14194 -0.0813,-0.0937 -0.12265,-0.22049 -0.12265,-0.38034 0,-0.1695 0.0427,-0.30454 0.12954,-0.40652 0.0854,-0.1006 0.20119,-0.15158 0.34589,-0.15158 0.12953,0 0.23977,0.0441 0.32935,0.13091"
       style="fill:#211e1e;fill-opacity:1;fill-rule:nonzero;stroke:none;stroke-width:0.35277775" />
    <path
       inkscape:connector-curvature="0"
       id="path13802"
       d="m 109.52261,118.33686 v 0.67386 c 0,0.0524 0.008,0.0951 0.0248,0.12815 0.0289,0.0606 0.0841,0.0896 0.16536,0.0896 0.11576,0 0.1943,-0.0524 0.23564,-0.15848 0.0234,-0.0565 0.0345,-0.13505 0.0345,-0.23426 v -0.49885 h 0.17088 v 1.01561 h -0.16123 l 0.001,-0.15021 c -0.022,0.0386 -0.0482,0.0717 -0.0813,0.0978 -0.0634,0.0524 -0.14056,0.0799 -0.23151,0.0799 -0.14193,0 -0.2384,-0.0482 -0.29076,-0.14469 -0.0276,-0.0524 -0.0413,-0.12127 -0.0413,-0.20809 v -0.69039 h 0.17364"
       style="fill:#211e1e;fill-opacity:1;fill-rule:nonzero;stroke:none;stroke-width:0.35277775" />
    <path
       inkscape:connector-curvature="0"
       id="path13804"
       d="m 111.05912,119.1375 c 0.0524,-0.0662 0.0786,-0.16537 0.0786,-0.29904 0,-0.0799 -0.011,-0.1502 -0.0345,-0.20808 -0.0441,-0.11162 -0.1254,-0.16812 -0.24391,-0.16812 -0.11851,0 -0.19844,0.0593 -0.24254,0.17776 -0.0234,0.0634 -0.0358,0.14332 -0.0358,0.23978 0,0.0785 0.0124,0.14607 0.0358,0.19982 0.0441,0.10611 0.1254,0.15847 0.24254,0.15847 0.0799,0 0.14607,-0.0345 0.19981,-0.10059 z m -0.64216,-0.79513 h 0.16674 v 0.13505 c 0.0345,-0.0469 0.0717,-0.0827 0.113,-0.10749 0.0565,-0.0386 0.1254,-0.0565 0.20256,-0.0565 0.11576,0 0.2136,0.0441 0.29353,0.13229 0.0813,0.0882 0.12127,0.2136 0.12127,0.37621 0,0.22186 -0.0579,0.37896 -0.17501,0.47404 -0.073,0.0606 -0.15848,0.091 -0.25632,0.091 -0.0772,0 -0.14056,-0.0165 -0.19293,-0.051 -0.0303,-0.0193 -0.0648,-0.051 -0.10197,-0.0978 v 0.51815 h -0.17087 v -1.41387"
       style="fill:#211e1e;fill-opacity:1;fill-rule:nonzero;stroke:none;stroke-width:0.35277775" />
    <path
       inkscape:connector-curvature="0"
       id="path13806"
       d="m 111.51525,119.35247 h 0.17087 v -1.39182 h -0.17087 z m 0,0"
       style="fill:#211e1e;fill-opacity:1;fill-rule:nonzero;stroke:none;stroke-width:0.35277775" />
    <path
       inkscape:connector-curvature="0"
       id="path13808"
       d="m 111.94106,118.34237 h 0.17364 v 1.0101 h -0.17364 z m 0,-0.38172 h 0.17364 v 0.19293 h -0.17364 z m 0,0"
       style="fill:#211e1e;fill-opacity:1;fill-rule:nonzero;stroke:none;stroke-width:0.35277775" />
    <path
       inkscape:connector-curvature="0"
       id="path13810"
       d="m 112.37239,118.33686 h 0.16261 v 0.14469 c 0.0482,-0.0593 0.0992,-0.10197 0.15296,-0.12816 0.0537,-0.0248 0.113,-0.0386 0.17915,-0.0386 0.14331,0 0.24115,0.0496 0.29076,0.1502 0.0275,0.0551 0.0427,0.13367 0.0427,0.23565 v 0.65181 h -0.17363 v -0.63941 c 0,-0.062 -0.01,-0.11162 -0.0276,-0.15021 -0.0303,-0.0634 -0.0854,-0.0951 -0.16537,-0.0951 -0.04,0 -0.073,0.004 -0.0992,0.0124 -0.0469,0.0138 -0.0882,0.0427 -0.12265,0.0841 -0.0289,0.0331 -0.0468,0.0675 -0.0565,0.10336 -0.008,0.0358 -0.0124,0.0868 -0.0124,0.15296 v 0.53192 h -0.17087 v -1.01561"
       style="fill:#211e1e;fill-opacity:1;fill-rule:nonzero;stroke:none;stroke-width:0.35277775" />
    <path
       inkscape:connector-curvature="0"
       id="path13812"
       d="m 114.03706,118.56148 c -0.0524,-0.0606 -0.11713,-0.091 -0.19706,-0.091 -0.11989,0 -0.20119,0.0565 -0.24529,0.16812 -0.0234,0.0606 -0.0345,0.13918 -0.0345,0.23564 0,0.11438 0.022,0.20257 0.0689,0.26183 0.0469,0.0592 0.10886,0.0896 0.18603,0.0896 0.12265,0 0.20808,-0.0551 0.2577,-0.16536 0.0276,-0.0634 0.0413,-0.13643 0.0413,-0.21911 0,-0.12678 -0.0262,-0.21911 -0.0772,-0.27974 z m -0.0207,-0.18328 c 0.0317,0.022 0.0648,0.0551 0.0978,0.0965 v -0.12678 h 0.15709 v 0.92191 c 0,0.12953 -0.0193,0.23151 -0.0565,0.30592 -0.0703,0.13643 -0.20394,0.20533 -0.39963,0.20533 -0.10886,0 -0.19981,-0.0234 -0.27422,-0.073 -0.0744,-0.0496 -0.11576,-0.1254 -0.12541,-0.23013 h 0.17363 c 0.008,0.0455 0.0248,0.0813 0.0496,0.10611 0.0372,0.0372 0.0978,0.0565 0.18052,0.0565 0.12954,0 0.21497,-0.0468 0.25493,-0.1378 0.0248,-0.0551 0.0358,-0.15159 0.0331,-0.29077 -0.0344,0.051 -0.0744,0.0896 -0.12265,0.11438 -0.0482,0.0262 -0.11024,0.0386 -0.19016,0.0386 -0.10887,0 -0.20395,-0.0386 -0.28664,-0.11713 -0.0827,-0.0785 -0.12264,-0.20671 -0.12264,-0.38723 0,-0.1695 0.0413,-0.30317 0.12402,-0.39825 0.0827,-0.0951 0.1819,-0.14332 0.29904,-0.14332 0.0799,0 0.14882,0.0207 0.20808,0.0593"
       style="fill:#211e1e;fill-opacity:1;fill-rule:nonzero;stroke:none;stroke-width:0.35277775" />
    <path
       inkscape:connector-curvature="0"
       id="path13814"
       d="m 105.62,115.94734 c 1.93339,-2.26688 4.81624,-2.53973 6.8144,-0.678"
       style="fill:none;stroke:#211e1e;stroke-width:0.14110757;stroke-linecap:butt;stroke-linejoin:miter;stroke-miterlimit:10;stroke-opacity:1" />
    <path
       inkscape:connector-curvature="0"
       id="path13816"
       d="m 111.76606,115.60421 1.3422,0.42305 -0.30592,-1.3739 -1.03628,0.95085"
       style="fill:#211e1e;fill-opacity:1;fill-rule:nonzero;stroke:none;stroke-width:0.35277775" />
    <path
       inkscape:connector-curvature="0"
       id="path13818"
       d="m 105.62,121.59867 c 1.93339,2.26688 4.81624,2.53973 6.8144,0.678"
       style="fill:none;stroke:#211e1e;stroke-width:0.14110757;stroke-linecap:butt;stroke-linejoin:miter;stroke-miterlimit:10;stroke-opacity:1" />
    <path
       inkscape:connector-curvature="0"
       id="path13820"
       d="m 112.80234,122.89265 0.30592,-1.37253 -1.3422,0.42168 1.03628,0.95085"
       style="fill:#211e1e;fill-opacity:1;fill-rule:nonzero;stroke:none;stroke-width:0.35277775" />
    <path
       inkscape:connector-curvature="0"
       id="path13822"
       d="m 5.3718598,110.81552 c -0.1350467,0.12403 -0.2328862,0.26734 -0.2907665,0.43133 -0.057876,0.16261 -0.086815,0.38172 -0.086815,0.65595 0,0.27423 0.028928,0.49333 0.086815,0.65594 0.05788,0.16123 0.1557198,0.30455 0.2907665,0.42719 l -0.048232,0.0524 c -0.1708747,-0.1254 -0.3045457,-0.28801 -0.4010092,-0.48783 -0.095084,-0.20119 -0.143316,-0.41616 -0.143316,-0.64767 0,-0.23151 0.048232,-0.44787 0.1446953,-0.65044 0.096464,-0.20119 0.2287552,-0.3638 0.3996302,-0.48782 l 0.048232,0.051"
       style="fill:#e34242;fill-opacity:1;fill-rule:nonzero;stroke:none;stroke-width:0.35277775" />
    <path
       inkscape:connector-curvature="0"
       id="path13824"
       d="m 6.5914231,111.4756 v -0.0661 c 0.1626095,0.011 0.2880114,0.0689 0.3762058,0.17087 0.086815,0.10198 0.1295365,0.24254 0.1295365,0.42031 0,0.17087 -0.041342,0.30868 -0.1254019,0.41616 -0.08406,0.10611 -0.1915477,0.15986 -0.3224601,0.15986 -0.07855,0 -0.1433158,-0.0262 -0.1943063,-0.0758 -0.050987,-0.0496 -0.09095,-0.12815 -0.119888,-0.23288 -0.027552,0.10473 -0.067525,0.1819 -0.1185122,0.23151 -0.050987,0.051 -0.1171329,0.0772 -0.1956787,0.0772 -0.1322917,0 -0.2397797,-0.0538 -0.3224636,-0.15848 -0.08406,-0.10611 -0.1254019,-0.24529 -0.1254019,-0.41754 0,-0.17777 0.042721,-0.31833 0.1309158,-0.42031 0.088194,-0.10197 0.2135963,-0.15985 0.3775816,-0.17087 v 0.0661 c -0.099219,0.006 -0.170875,0.0441 -0.212217,0.11438 -0.041342,0.0703 -0.063391,0.19017 -0.063391,0.35967 0,0.19981 0.019296,0.34175 0.056501,0.42581 0.035828,0.0827 0.09646,0.12403 0.1818992,0.12403 0.068901,0 0.1240226,-0.0303 0.1639887,-0.0937 0.039963,-0.062 0.059253,-0.14883 0.059253,-0.26183 0,-0.0565 -0.00688,-0.13229 -0.023424,-0.22462 -0.016544,-0.0923 -0.024799,-0.15572 -0.024799,-0.19017 0,-0.0386 0.00963,-0.0689 0.028928,-0.0909 0.020672,-0.0207 0.049608,-0.0317 0.086815,-0.0317 0.037208,0 0.066146,0.011 0.086815,0.0317 0.019296,0.022 0.028928,0.0524 0.028928,0.0909 0,0.0372 -0.00688,0.10198 -0.023424,0.19431 -0.015168,0.0923 -0.023423,0.16674 -0.023423,0.22324 0,0.11024 0.020672,0.19706 0.060635,0.25907 0.039963,0.0634 0.095084,0.0937 0.1639854,0.0937 0.082684,0 0.1433157,-0.04 0.179144,-0.12265 0.037207,-0.0827 0.056501,-0.21773 0.056501,-0.40514 0,-0.1819 -0.020672,-0.30868 -0.062011,-0.38034 -0.041342,-0.0717 -0.1116229,-0.11024 -0.2108416,-0.11576"
       style="fill:#e34242;fill-opacity:1;fill-rule:nonzero;stroke:none;stroke-width:0.35277775" />
    <path
       inkscape:connector-curvature="0"
       id="path13826"
       d="m 7.298358,110.81552 0.046852,-0.051 c 0.1708785,0.12402 0.304546,0.28801 0.4010097,0.4892 0.096464,0.20119 0.1446953,0.41755 0.1446953,0.64906 0,0.23013 -0.048232,0.44648 -0.1446953,0.64767 -0.096464,0.19982 -0.2301312,0.36243 -0.4010097,0.48783 l -0.046852,-0.0524 c 0.1364263,-0.12126 0.2342658,-0.26458 0.2921424,-0.42581 0.05788,-0.16261 0.085439,-0.38172 0.085439,-0.65732 0,-0.27699 -0.027552,-0.4961 -0.085439,-0.65871 -0.057877,-0.1626 -0.1557161,-0.30454 -0.2921424,-0.42857"
       style="fill:#e34242;fill-opacity:1;fill-rule:nonzero;stroke:none;stroke-width:0.35277775" />
    <path
       inkscape:connector-curvature="0"
       id="path13828"
       d="m 30.419081,110.81552 c -0.135046,0.12403 -0.232886,0.26734 -0.290766,0.43133 -0.05788,0.16261 -0.08682,0.38172 -0.08682,0.65595 0,0.27423 0.02893,0.49333 0.08682,0.65594 0.05788,0.16123 0.15572,0.30455 0.290766,0.42719 l -0.04823,0.0524 c -0.170876,-0.1254 -0.304547,-0.28801 -0.401011,-0.48783 -0.09508,-0.20119 -0.143317,-0.41616 -0.143317,-0.64767 0,-0.23151 0.04823,-0.44787 0.144695,-0.65044 0.09646,-0.20119 0.228757,-0.3638 0.399632,-0.48782 l 0.04823,0.051"
       style="fill:#e34242;fill-opacity:1;fill-rule:nonzero;stroke:none;stroke-width:0.35277775" />
    <path
       inkscape:connector-curvature="0"
       id="path13830"
       d="m 31.638644,111.4756 v -0.0661 c 0.16261,0.011 0.288012,0.0689 0.376206,0.17087 0.08682,0.10198 0.129537,0.24254 0.129537,0.42031 0,0.17087 -0.04134,0.30868 -0.125402,0.41616 -0.08406,0.10611 -0.191548,0.15986 -0.322461,0.15986 -0.07855,0 -0.143314,-0.0262 -0.194305,-0.0758 -0.05099,-0.0496 -0.09095,-0.12815 -0.119888,-0.23288 -0.02755,0.10473 -0.06753,0.1819 -0.118512,0.23151 -0.05099,0.051 -0.117133,0.0772 -0.19568,0.0772 -0.132292,0 -0.239779,-0.0538 -0.322464,-0.15848 -0.08406,-0.10611 -0.125402,-0.24529 -0.125402,-0.41754 0,-0.17777 0.04272,-0.31833 0.130916,-0.42031 0.0882,-0.10197 0.213598,-0.15985 0.377582,-0.17087 v 0.0661 c -0.09922,0.006 -0.170874,0.0441 -0.212217,0.11438 -0.04134,0.0703 -0.06339,0.19017 -0.06339,0.35967 0,0.19981 0.01929,0.34175 0.0565,0.42581 0.03583,0.0827 0.09646,0.12403 0.181901,0.12403 0.0689,0 0.124021,-0.0303 0.163989,-0.0937 0.03996,-0.062 0.05925,-0.14883 0.05925,-0.26183 0,-0.0565 -0.0069,-0.13229 -0.02341,-0.22462 -0.01654,-0.0923 -0.02479,-0.15572 -0.02479,-0.19017 0,-0.0386 0.0096,-0.0689 0.02893,-0.0909 0.02066,-0.0207 0.04961,-0.0317 0.08682,-0.0317 0.03721,0 0.06615,0.011 0.08681,0.0317 0.01929,0.022 0.02893,0.0524 0.02893,0.0909 0,0.0372 -0.0069,0.10198 -0.02341,0.19431 -0.01516,0.0923 -0.02342,0.16674 -0.02342,0.22324 0,0.11024 0.02066,0.19706 0.06063,0.25907 0.03996,0.0634 0.09508,0.0937 0.163986,0.0937 0.08268,0 0.143314,-0.04 0.179144,-0.12265 0.03721,-0.0827 0.0565,-0.21773 0.0565,-0.40514 0,-0.1819 -0.02066,-0.30868 -0.06201,-0.38034 -0.04134,-0.0717 -0.111623,-0.11024 -0.210842,-0.11576"
       style="fill:#e34242;fill-opacity:1;fill-rule:nonzero;stroke:none;stroke-width:0.35277775" />
    <path
       inkscape:connector-curvature="0"
       id="path13832"
       d="m 32.345579,110.81552 0.04685,-0.051 c 0.170879,0.12402 0.304546,0.28801 0.401011,0.4892 0.09646,0.20119 0.144695,0.41755 0.144695,0.64906 0,0.23013 -0.04823,0.44648 -0.144695,0.64767 -0.09647,0.19982 -0.230132,0.36243 -0.401011,0.48783 l -0.04685,-0.0524 c 0.136427,-0.12126 0.234267,-0.26458 0.292142,-0.42581 0.05788,-0.16261 0.08544,-0.38172 0.08544,-0.65732 0,-0.27699 -0.02755,-0.4961 -0.08544,-0.65871 -0.05787,-0.1626 -0.155715,-0.30454 -0.292142,-0.42857"
       style="fill:#e34242;fill-opacity:1;fill-rule:nonzero;stroke:none;stroke-width:0.35277775" />
    <path
       inkscape:connector-curvature="0"
       id="path13834"
       d="m 53.349638,110.81552 c -0.136427,0.12403 -0.232886,0.26734 -0.290767,0.43133 -0.05788,0.16261 -0.0882,0.38172 -0.0882,0.65595 0,0.27423 0.0303,0.49333 0.0882,0.65594 0.05788,0.16123 0.15434,0.30455 0.290767,0.42719 l -0.04961,0.0524 c -0.169497,-0.1254 -0.30317,-0.28801 -0.399632,-0.48783 -0.09646,-0.20119 -0.143316,-0.41616 -0.143316,-0.64767 0,-0.23151 0.04823,-0.44787 0.144695,-0.65044 0.09646,-0.20119 0.228756,-0.3638 0.398253,-0.48782 l 0.04961,0.051"
       style="fill:#e34242;fill-opacity:1;fill-rule:nonzero;stroke:none;stroke-width:0.35277775" />
    <path
       inkscape:connector-curvature="0"
       id="path13836"
       d="m 54.5692,111.4756 v -0.0661 c 0.162608,0.011 0.28801,0.0689 0.374825,0.17087 0.0882,0.10198 0.130916,0.24254 0.130916,0.42031 0,0.17087 -0.04134,0.30868 -0.125402,0.41616 -0.08406,0.10611 -0.191548,0.15986 -0.322458,0.15986 -0.07855,0 -0.143317,-0.0262 -0.194308,-0.0758 -0.05099,-0.0496 -0.09233,-0.12815 -0.121266,-0.23288 -0.02617,0.10473 -0.06615,0.1819 -0.117134,0.23151 -0.05236,0.051 -0.117131,0.0772 -0.195678,0.0772 -0.132292,0 -0.239779,-0.0538 -0.323839,-0.15848 -0.08268,-0.10611 -0.125402,-0.24529 -0.125402,-0.41754 0,-0.17777 0.0441,-0.31833 0.132291,-0.42031 0.08682,-0.10197 0.213596,-0.15985 0.377582,-0.17087 v 0.0661 c -0.100597,0.006 -0.170876,0.0441 -0.213595,0.11438 -0.04134,0.0703 -0.06201,0.19017 -0.06201,0.35967 0,0.19981 0.01791,0.34175 0.05512,0.42581 0.03721,0.0827 0.09784,0.12403 0.183277,0.12403 0.0689,0 0.124023,-0.0303 0.163988,-0.0937 0.03996,-0.062 0.05925,-0.14883 0.05925,-0.26183 0,-0.0565 -0.0083,-0.13229 -0.02479,-0.22462 -0.01654,-0.0923 -0.02479,-0.15572 -0.02479,-0.19017 0,-0.0386 0.01101,-0.0689 0.0303,-0.0909 0.02066,-0.0207 0.04961,-0.0317 0.08544,-0.0317 0.03859,0 0.06753,0.011 0.08682,0.0317 0.02066,0.022 0.0303,0.0524 0.0303,0.0909 0,0.0372 -0.0069,0.10198 -0.02341,0.19431 -0.01516,0.0923 -0.02342,0.16674 -0.02342,0.22324 0,0.11024 0.02066,0.19706 0.06063,0.25907 0.03996,0.0634 0.0937,0.0937 0.163986,0.0937 0.08268,0 0.141941,-0.04 0.179144,-0.12265 0.03721,-0.0827 0.0565,-0.21773 0.0565,-0.40514 0,-0.1819 -0.02066,-0.30868 -0.06201,-0.38034 -0.04134,-0.0717 -0.111623,-0.11024 -0.210842,-0.11576"
       style="fill:#e34242;fill-opacity:1;fill-rule:nonzero;stroke:none;stroke-width:0.35277775" />
    <path
       inkscape:connector-curvature="0"
       id="path13838"
       d="m 55.276135,110.81552 0.04685,-0.051 c 0.169497,0.12402 0.30317,0.28801 0.401007,0.4892 0.09647,0.20119 0.144696,0.41755 0.144696,0.64906 0,0.23013 -0.04823,0.44648 -0.144696,0.64767 -0.09784,0.19982 -0.23151,0.36243 -0.401007,0.48783 l -0.04685,-0.0524 c 0.136425,-0.12126 0.232889,-0.26458 0.290767,-0.42581 0.05787,-0.16261 0.08682,-0.38172 0.08682,-0.65732 0,-0.27699 -0.02893,-0.4961 -0.08682,-0.65871 -0.05788,-0.1626 -0.154345,-0.30454 -0.29077,-0.42857"
       style="fill:#e34242;fill-opacity:1;fill-rule:nonzero;stroke:none;stroke-width:0.35277775" />
    <path
       inkscape:connector-curvature="0"
       id="path13840"
       d="m 74.869081,110.81552 c -0.136427,0.12403 -0.232886,0.26734 -0.290766,0.43133 -0.05788,0.16261 -0.0882,0.38172 -0.0882,0.65595 0,0.27423 0.0303,0.49333 0.0882,0.65594 0.05788,0.16123 0.154339,0.30455 0.290766,0.42719 l -0.04961,0.0524 c -0.169496,-0.1254 -0.303169,-0.28801 -0.399631,-0.48783 -0.09646,-0.20119 -0.143317,-0.41616 -0.143317,-0.64767 0,-0.23151 0.04823,-0.44787 0.144695,-0.65044 0.09647,-0.20119 0.228757,-0.3638 0.398254,-0.48782 l 0.04961,0.051"
       style="fill:#457dbf;fill-opacity:1;fill-rule:nonzero;stroke:none;stroke-width:0.35277775" />
    <path
       inkscape:connector-curvature="0"
       id="path13842"
       d="m 75.112995,111.37087 -0.05237,-0.007 c 0.03447,-0.15296 0.09784,-0.27009 0.192926,-0.3514 0.0937,-0.0813 0.213593,-0.12264 0.358288,-0.12264 0.135046,0 0.243915,0.0386 0.325218,0.11438 0.0813,0.0758 0.122645,0.17776 0.122645,0.30592 0,0.0978 -0.02755,0.19568 -0.08406,0.29352 -0.05512,0.0978 -0.159851,0.22462 -0.31419,0.3831 l -0.370698,0.37896 h 0.47956 c 0.124024,0 0.209463,-0.0124 0.253558,-0.0386 0.0441,-0.0248 0.08131,-0.0717 0.11438,-0.14056 l 0.04685,0.0152 -0.140562,0.35002 h -0.985298 v -0.0441 l 0.264583,-0.27699 0.02479,-0.0248 c 0.333483,-0.35003 0.501602,-0.6091 0.501602,-0.77997 0,-0.11163 -0.03168,-0.19844 -0.09508,-0.26321 -0.06339,-0.0648 -0.14745,-0.0978 -0.253558,-0.0978 -0.09095,0 -0.1695,0.0262 -0.235646,0.0799 -0.06752,0.0537 -0.118512,0.12815 -0.152961,0.22599"
       style="fill:#457dbf;fill-opacity:1;fill-rule:nonzero;stroke:none;stroke-width:0.35277775" />
    <path
       inkscape:connector-curvature="0"
       id="path13844"
       d="m 77.323367,111.4756 v -0.0661 c 0.162608,0.011 0.288009,0.0689 0.374825,0.17087 0.0882,0.10198 0.130915,0.24254 0.130915,0.42031 0,0.17087 -0.04134,0.30868 -0.125402,0.41616 -0.08406,0.10611 -0.191547,0.15986 -0.322458,0.15986 -0.07855,0 -0.143317,-0.0262 -0.194307,-0.0758 -0.05099,-0.0496 -0.09233,-0.12815 -0.121267,-0.23288 -0.02617,0.10473 -0.06615,0.1819 -0.117133,0.23151 -0.05236,0.051 -0.117134,0.0772 -0.195678,0.0772 -0.132292,0 -0.239782,-0.0538 -0.32384,-0.15848 -0.08269,-0.10611 -0.125402,-0.24529 -0.125402,-0.41754 0,-0.17777 0.0441,-0.31833 0.132292,-0.42031 0.08682,-0.10197 0.213596,-0.15985 0.377582,-0.17087 v 0.0661 c -0.1006,0.006 -0.170876,0.0441 -0.213598,0.11438 -0.04134,0.0703 -0.06201,0.19017 -0.06201,0.35967 0,0.19981 0.01791,0.34175 0.05512,0.42581 0.03721,0.0827 0.09784,0.12403 0.183279,0.12403 0.0689,0 0.124024,-0.0303 0.163989,-0.0937 0.03996,-0.062 0.05925,-0.14883 0.05925,-0.26183 0,-0.0565 -0.0083,-0.13229 -0.02479,-0.22462 -0.01654,-0.0923 -0.02479,-0.15572 -0.02479,-0.19017 0,-0.0386 0.01101,-0.0689 0.0303,-0.0909 0.02066,-0.0207 0.04961,-0.0317 0.08544,-0.0317 0.03859,0 0.06752,0.011 0.08682,0.0317 0.02066,0.022 0.0303,0.0524 0.0303,0.0909 0,0.0372 -0.0069,0.10198 -0.02342,0.19431 -0.01516,0.0923 -0.02341,0.16674 -0.02341,0.22324 0,0.11024 0.02066,0.19706 0.06063,0.25907 0.03996,0.0634 0.0937,0.0937 0.163986,0.0937 0.08268,0 0.141941,-0.04 0.179145,-0.12265 0.03721,-0.0827 0.0565,-0.21773 0.0565,-0.40514 0,-0.1819 -0.02066,-0.30868 -0.06201,-0.38034 -0.04134,-0.0717 -0.111622,-0.11024 -0.210841,-0.11576"
       style="fill:#457dbf;fill-opacity:1;fill-rule:nonzero;stroke:none;stroke-width:0.35277775" />
    <path
       inkscape:connector-curvature="0"
       id="path13846"
       d="m 78.030302,110.81552 0.04685,-0.051 c 0.169498,0.12402 0.30317,0.28801 0.401008,0.4892 0.09646,0.20119 0.144695,0.41755 0.144695,0.64906 0,0.23013 -0.04823,0.44648 -0.144695,0.64767 -0.09784,0.19982 -0.23151,0.36243 -0.401008,0.48783 l -0.04685,-0.0524 c 0.136424,-0.12126 0.232889,-0.26458 0.290766,-0.42581 0.05787,-0.16261 0.08682,-0.38172 0.08682,-0.65732 0,-0.27699 -0.02893,-0.4961 -0.08682,-0.65871 -0.05788,-0.1626 -0.154342,-0.30454 -0.290766,-0.42857"
       style="fill:#457dbf;fill-opacity:1;fill-rule:nonzero;stroke:none;stroke-width:0.35277775" />
    <path
       inkscape:connector-curvature="0"
       id="path13848"
       d="m 96.741302,110.81552 c -0.136427,0.12403 -0.232886,0.26734 -0.290767,0.43133 -0.05788,0.16261 -0.08819,0.38172 -0.08819,0.65595 0,0.27423 0.0303,0.49333 0.08819,0.65594 0.05788,0.16123 0.15434,0.30455 0.290767,0.42719 l -0.04961,0.0524 c -0.1695,-0.1254 -0.30317,-0.28801 -0.399635,-0.48783 -0.09646,-0.20119 -0.143316,-0.41616 -0.143316,-0.64767 0,-0.23151 0.04823,-0.44787 0.144695,-0.65044 0.09647,-0.20119 0.228759,-0.3638 0.398259,-0.48782 l 0.04961,0.051"
       style="fill:#457dbf;fill-opacity:1;fill-rule:nonzero;stroke:none;stroke-width:0.35277775" />
    <path
       inkscape:connector-curvature="0"
       id="path13850"
       d="m 96.985216,111.37087 -0.05237,-0.007 c 0.03447,-0.15296 0.09784,-0.27009 0.192926,-0.3514 0.0937,-0.0813 0.213593,-0.12264 0.358288,-0.12264 0.135049,0 0.243914,0.0386 0.32522,0.11438 0.0813,0.0758 0.122643,0.17776 0.122643,0.30592 0,0.0978 -0.02755,0.19568 -0.08406,0.29352 -0.05512,0.0978 -0.159851,0.22462 -0.31419,0.3831 l -0.370695,0.37896 h 0.479558 c 0.124023,0 0.209462,-0.0124 0.253561,-0.0386 0.04409,-0.0248 0.0813,-0.0717 0.114376,-0.14056 l 0.04685,0.0152 -0.14056,0.35002 h -0.985298 v -0.0441 l 0.289391,-0.30179 c 0.333483,-0.35003 0.501602,-0.6091 0.501602,-0.77997 0,-0.11163 -0.03168,-0.19844 -0.09508,-0.26321 -0.06339,-0.0648 -0.14745,-0.0978 -0.253558,-0.0978 -0.09095,0 -0.1695,0.0262 -0.235646,0.0799 -0.06752,0.0537 -0.118512,0.12815 -0.152961,0.22599"
       style="fill:#457dbf;fill-opacity:1;fill-rule:nonzero;stroke:none;stroke-width:0.35277775" />
    <path
       inkscape:connector-curvature="0"
       id="path13852"
       d="m 99.195587,111.4756 v -0.0661 c 0.162611,0.011 0.288013,0.0689 0.374828,0.17087 0.08819,0.10198 0.130915,0.24254 0.130915,0.42031 0,0.17087 -0.04134,0.30868 -0.125401,0.41616 -0.08406,0.10611 -0.191548,0.15986 -0.322461,0.15986 -0.07855,0 -0.143317,-0.0262 -0.194308,-0.0758 -0.05098,-0.0496 -0.09232,-0.12815 -0.121266,-0.23288 -0.02617,0.10473 -0.06615,0.1819 -0.117134,0.23151 -0.05236,0.051 -0.117131,0.0772 -0.195678,0.0772 -0.132291,0 -0.239778,-0.0538 -0.323839,-0.15848 -0.08268,-0.10611 -0.125402,-0.24529 -0.125402,-0.41754 0,-0.17777 0.0441,-0.31833 0.132292,-0.42031 0.08682,-0.10197 0.213595,-0.15985 0.377581,-0.17087 v 0.0661 c -0.100597,0.006 -0.170876,0.0441 -0.213595,0.11438 -0.04134,0.0703 -0.06201,0.19017 -0.06201,0.35967 0,0.19981 0.01791,0.34175 0.05512,0.42581 0.03721,0.0827 0.09784,0.12403 0.183277,0.12403 0.0689,0 0.124023,-0.0303 0.163989,-0.0937 0.03996,-0.062 0.05925,-0.14883 0.05925,-0.26183 0,-0.0565 -0.0083,-0.13229 -0.02479,-0.22462 -0.01654,-0.0923 -0.02479,-0.15572 -0.02479,-0.19017 0,-0.0386 0.01101,-0.0689 0.0303,-0.0909 0.02066,-0.0207 0.04961,-0.0317 0.08543,-0.0317 0.03859,0 0.06753,0.011 0.08682,0.0317 0.02066,0.022 0.0303,0.0524 0.0303,0.0909 0,0.0372 -0.0069,0.10198 -0.02341,0.19431 -0.01516,0.0923 -0.02342,0.16674 -0.02342,0.22324 0,0.11024 0.02066,0.19706 0.06064,0.25907 0.03996,0.0634 0.0937,0.0937 0.163984,0.0937 0.08268,0 0.141941,-0.04 0.179144,-0.12265 0.03721,-0.0827 0.0565,-0.21773 0.0565,-0.40514 0,-0.1819 -0.02066,-0.30868 -0.06201,-0.38034 -0.04133,-0.0717 -0.111613,-0.11024 -0.210832,-0.11576"
       style="fill:#457dbf;fill-opacity:1;fill-rule:nonzero;stroke:none;stroke-width:0.35277775" />
    <path
       inkscape:connector-curvature="0"
       id="path13854"
       d="m 99.902522,110.81552 0.04685,-0.051 c 0.169498,0.12402 0.303168,0.28801 0.401008,0.4892 0.0965,0.20119 0.1447,0.41755 0.1447,0.64906 0,0.23013 -0.0482,0.44648 -0.1447,0.64767 -0.0978,0.19982 -0.23151,0.36243 -0.401008,0.48783 l -0.04685,-0.0524 c 0.136428,-0.12126 0.232888,-0.26458 0.290768,-0.42581 0.0579,-0.16261 0.0868,-0.38172 0.0868,-0.65732 0,-0.27699 -0.0289,-0.4961 -0.0868,-0.65871 -0.0579,-0.1626 -0.15434,-0.30454 -0.290768,-0.42857"
       style="fill:#457dbf;fill-opacity:1;fill-rule:nonzero;stroke:none;stroke-width:0.35277775" />
    <path
       inkscape:connector-curvature="0"
       id="path13856"
       d="m 118.61352,110.81552 c -0.13642,0.12403 -0.23288,0.26734 -0.29076,0.43133 -0.0593,0.16261 -0.0882,0.38172 -0.0882,0.65595 0,0.27423 0.0289,0.49333 0.0882,0.65594 0.0579,0.16123 0.15434,0.30455 0.29076,0.42719 l -0.0496,0.0524 c -0.17088,-0.1254 -0.30317,-0.28801 -0.39964,-0.48783 -0.0965,-0.20119 -0.14469,-0.41616 -0.14469,-0.64767 0,-0.23151 0.0482,-0.44787 0.14469,-0.65044 0.0965,-0.20119 0.23014,-0.3638 0.39964,-0.48782 l 0.0496,0.051"
       style="fill:#457dbf;fill-opacity:1;fill-rule:nonzero;stroke:none;stroke-width:0.35277775" />
    <path
       inkscape:connector-curvature="0"
       id="path13858"
       d="m 118.85744,111.37087 -0.0524,-0.007 c 0.0331,-0.15296 0.0978,-0.27009 0.19293,-0.3514 0.0937,-0.0813 0.21359,-0.12264 0.35829,-0.12264 0.13504,0 0.24391,0.0386 0.32521,0.11438 0.0813,0.0758 0.12127,0.17776 0.12127,0.30592 0,0.0978 -0.0276,0.19568 -0.0827,0.29352 -0.0551,0.0978 -0.15985,0.22462 -0.31419,0.3831 l -0.3707,0.37896 h 0.47818 c 0.12541,0 0.21084,-0.0124 0.25494,-0.0386 0.0427,-0.0248 0.0813,-0.0717 0.113,-0.14056 l 0.0468,0.0152 -0.13918,0.35002 h -0.98667 v -0.0441 l 0.28938,-0.30179 c 0.33487,-0.35003 0.50161,-0.6091 0.50161,-0.77997 0,-0.11163 -0.0317,-0.19844 -0.0937,-0.26321 -0.0634,-0.0648 -0.14882,-0.0978 -0.25494,-0.0978 -0.0896,0 -0.16811,0.0262 -0.23564,0.0799 -0.0661,0.0537 -0.11713,0.12815 -0.15158,0.22599"
       style="fill:#457dbf;fill-opacity:1;fill-rule:nonzero;stroke:none;stroke-width:0.35277775" />
    <path
       inkscape:connector-curvature="0"
       id="path13860"
       d="m 121.06643,111.4756 v -0.0661 c 0.16399,0.011 0.28939,0.0689 0.37621,0.17087 0.0868,0.10198 0.13091,0.24254 0.13091,0.42031 0,0.17087 -0.0413,0.30868 -0.12678,0.41616 -0.0827,0.10611 -0.19155,0.15986 -0.32246,0.15986 -0.0772,0 -0.14194,-0.0262 -0.19293,-0.0758 -0.0524,-0.0496 -0.0923,-0.12815 -0.12126,-0.23288 -0.0276,0.10473 -0.0662,0.1819 -0.11851,0.23151 -0.051,0.051 -0.11576,0.0772 -0.1943,0.0772 -0.1323,0 -0.23979,-0.0538 -0.32384,-0.15848 -0.0841,-0.10611 -0.12541,-0.24529 -0.12541,-0.41754 0,-0.17777 0.0441,-0.31833 0.13091,-0.42031 0.0882,-0.10197 0.2136,-0.15985 0.37759,-0.17087 v 0.0661 c -0.0992,0.006 -0.1695,0.0441 -0.21222,0.11438 -0.0413,0.0703 -0.062,0.19017 -0.062,0.35967 0,0.19981 0.0179,0.34175 0.0551,0.42581 0.0372,0.0827 0.0978,0.12403 0.1819,0.12403 0.0703,0 0.1254,-0.0303 0.16537,-0.0937 0.04,-0.062 0.0592,-0.14883 0.0592,-0.26183 0,-0.0565 -0.008,-0.13229 -0.0248,-0.22462 -0.0165,-0.0923 -0.0248,-0.15572 -0.0248,-0.19017 0,-0.0386 0.01,-0.0689 0.0303,-0.0909 0.0207,-0.0207 0.0482,-0.0317 0.0854,-0.0317 0.0386,0 0.0675,0.011 0.0868,0.0317 0.0207,0.022 0.0303,0.0524 0.0303,0.0909 0,0.0372 -0.008,0.10198 -0.0234,0.19431 -0.0152,0.0923 -0.0234,0.16674 -0.0234,0.22324 0,0.11024 0.0193,0.19706 0.0606,0.25907 0.04,0.0634 0.0937,0.0937 0.16399,0.0937 0.0827,0 0.14194,-0.04 0.17914,-0.12265 0.0372,-0.0827 0.0551,-0.21773 0.0551,-0.40514 0,-0.1819 -0.0207,-0.30868 -0.0606,-0.38034 -0.0413,-0.0717 -0.11162,-0.11024 -0.21221,-0.11576"
       style="fill:#457dbf;fill-opacity:1;fill-rule:nonzero;stroke:none;stroke-width:0.35277775" />
    <path
       inkscape:connector-curvature="0"
       id="path13862"
       d="m 121.77336,110.81552 0.0469,-0.051 c 0.17088,0.12402 0.30455,0.28801 0.40101,0.4892 0.0978,0.20119 0.14607,0.41755 0.14607,0.64906 0,0.23013 -0.0482,0.44648 -0.14607,0.64767 -0.0965,0.19982 -0.23013,0.36243 -0.40101,0.48783 l -0.0469,-0.0524 c 0.13781,-0.12126 0.23427,-0.26458 0.29215,-0.42581 0.0579,-0.16261 0.0868,-0.38172 0.0868,-0.65732 0,-0.27699 -0.0289,-0.4961 -0.0868,-0.65871 -0.0579,-0.1626 -0.15434,-0.30454 -0.29215,-0.42857"
       style="fill:#457dbf;fill-opacity:1;fill-rule:nonzero;stroke:none;stroke-width:0.35277775" />
  </g>
</svg>
